<svg xmlns="http://www.w3.org/2000/svg" xmlns:xlink="http://www.w3.org/1999/xlink" width="500" zoomAndPan="magnify" viewBox="0 0 375 374.999991" height="500" preserveAspectRatio="xMidYMid meet" version="1.0"><defs><g/><clipPath id="a3f1756ace"><path d="M 158 83.253906 L 222 83.253906 L 222 150 L 158 150 Z M 158 83.253906 " clip-rule="nonzero"/></clipPath><clipPath id="3673b0cbb2"><path d="M 108.566406 122 L 173 122 L 173 177 L 108.566406 177 Z M 108.566406 122 " clip-rule="nonzero"/></clipPath><clipPath id="6d5834968b"><path d="M 200 122 L 266.816406 122 L 266.816406 188 L 200 188 Z M 200 122 " clip-rule="nonzero"/></clipPath></defs><g clip-path="url(#a3f1756ace)"><path fill="#ff2222" d="M 189.847656 83.355469 C 189.066406 83.394531 188.269531 83.789062 187.726562 84.523438 C 187.238281 85.183594 187.148438 85.5 187.117188 86.699219 C 187.101562 87.265625 187.070312 88.285156 187.046875 88.960938 C 187.027344 89.640625 187.046875 90.472656 187.089844 90.8125 C 187.136719 91.152344 187.152344 91.726562 187.128906 92.085938 C 187.089844 92.640625 187.285156 94.40625 187.40625 94.636719 C 187.421875 94.671875 187.421875 95.363281 187.40625 96.167969 C 187.382812 97.410156 187.402344 97.707031 187.535156 98.101562 C 187.71875 98.652344 187.628906 100.617188 187.355469 101.933594 C 187.222656 102.570312 187.207031 102.828125 187.257812 103.738281 C 187.289062 104.324219 187.289062 105.542969 187.25 106.445312 C 187.183594 108.089844 187.183594 108.09375 187.480469 108.691406 C 187.996094 109.730469 187.960938 109.691406 189.097656 109.878906 C 189.644531 109.964844 190.09375 110.046875 190.101562 110.054688 C 190.160156 110.109375 190.394531 109.789062 190.402344 109.644531 C 190.414062 109.511719 190.589844 109.347656 191.011719 109.066406 C 191.910156 108.46875 191.976562 108.28125 192.144531 105.921875 C 192.277344 104.074219 192.277344 104.074219 192.085938 103.679688 C 191.945312 103.394531 191.90625 103.226562 191.953125 103.074219 C 191.996094 102.953125 191.980469 102.726562 191.917969 102.527344 C 191.835938 102.269531 191.828125 101.898438 191.894531 100.9375 C 191.972656 99.753906 191.996094 99.65625 192.214844 99.304688 C 192.441406 98.941406 192.441406 98.90625 192.570312 96.988281 C 192.644531 95.917969 192.707031 94.378906 192.71875 93.5625 C 192.726562 92.746094 192.761719 91.007812 192.785156 89.695312 C 192.851562 86.410156 192.683594 85.363281 191.910156 84.3125 C 191.410156 83.632812 190.632812 83.316406 189.847656 83.355469 Z M 173.8125 88.3125 C 173.394531 88.300781 172.976562 88.375 172.699219 88.539062 C 171.765625 89.082031 171.453125 90.167969 171.730469 91.902344 C 171.800781 92.328125 171.859375 93.085938 171.867188 93.585938 C 171.878906 94.605469 171.929688 94.988281 172.160156 95.8125 C 172.308594 96.34375 172.433594 96.667969 172.914062 97.78125 C 173.011719 98.015625 173.335938 98.964844 173.628906 99.890625 C 173.917969 100.816406 174.21875 101.761719 174.292969 101.992188 C 174.367188 102.226562 174.539062 102.9375 174.679688 103.582031 C 174.960938 104.867188 175.71875 106.8125 176.292969 107.738281 C 176.730469 108.441406 176.769531 108.539062 177.082031 109.691406 C 177.707031 112.027344 177.835938 112.304688 178.496094 112.898438 C 178.703125 113.082031 178.953125 113.242188 179.050781 113.246094 C 179.460938 113.277344 180.65625 111.613281 180.507812 111.210938 C 180.421875 110.96875 180.0625 109.539062 179.914062 108.84375 C 179.832031 108.46875 179.832031 108.320312 179.917969 108.160156 C 180.050781 107.910156 179.945312 107.214844 179.609375 106.132812 C 179.089844 104.460938 178.679688 102.566406 178.75 102.191406 C 178.808594 101.867188 178.742188 101.105469 178.570312 100.152344 C 178.539062 99.96875 178.355469 99.460938 178.164062 99.023438 C 177.820312 98.226562 177.828125 98.226562 177.957031 97.097656 C 178.160156 95.289062 177.828125 93.109375 177.03125 90.9375 C 176.734375 90.117188 175.964844 89.269531 174.914062 88.597656 C 174.636719 88.421875 174.230469 88.320312 173.8125 88.308594 Z M 204.800781 90.519531 C 203.679688 90.558594 202.972656 91.058594 202.320312 92.214844 C 201.941406 92.890625 201.9375 92.886719 201.835938 94.238281 C 201.738281 95.542969 201.648438 96 201.359375 96.601562 C 201.203125 96.929688 200.953125 98.25 200.992188 98.5625 C 201.003906 98.683594 200.960938 99.046875 200.886719 99.375 C 200.359375 101.714844 200.144531 103.035156 200.03125 104.664062 C 199.914062 106.347656 199.917969 106.351562 199.285156 106.816406 C 198.542969 107.363281 197.980469 107.96875 197.769531 108.457031 C 197.6875 108.648438 197.574219 108.863281 197.511719 108.929688 C 197.140625 109.316406 196.492188 111.253906 196.003906 113.445312 C 195.878906 114 195.757812 114.496094 195.734375 114.546875 C 195.707031 114.597656 195.378906 114.632812 194.894531 114.625 C 194.222656 114.613281 194 114.636719 193.511719 114.820312 C 192.929688 115.042969 192.933594 115.050781 192.5 114.742188 C 191.628906 114.121094 191.25 114 189.6875 113.882812 C 187.964844 113.75 187.597656 113.828125 186.765625 114.53125 C 185.894531 115.269531 185.617188 115.832031 185.527344 117.042969 C 185.484375 117.582031 185.402344 118.125 185.339844 118.246094 C 185.28125 118.371094 185.230469 118.546875 185.226562 118.640625 C 185.207031 118.898438 184.949219 119.105469 184.664062 119.082031 C 184.457031 119.070312 184.316406 118.945312 183.890625 118.4375 C 182.832031 117.183594 182.125 117.132812 180.730469 118.210938 C 180.285156 118.554688 180.007812 118.703125 179.671875 118.777344 C 179.027344 118.914062 178.6875 119.050781 178.574219 119.230469 C 178.523438 119.316406 178.441406 119.390625 178.386719 119.386719 C 178.269531 119.375 177.71875 119.933594 177.4375 120.34375 C 177.21875 120.667969 177.214844 120.664062 176.871094 120.460938 C 176.429688 120.199219 175.300781 120.097656 174.671875 120.269531 C 173.75 120.523438 172.859375 121.210938 172.390625 122.046875 C 172.265625 122.265625 172.039062 122.625 171.882812 122.839844 C 171.386719 123.539062 171.332031 123.75 171.226562 125.269531 C 171.03125 128.03125 171.027344 128.9375 171.230469 129.445312 C 171.402344 129.875 171.925781 130.46875 172.148438 130.484375 C 172.339844 130.5 172.484375 130.8125 172.648438 131.585938 C 172.855469 132.578125 173.21875 133.382812 173.59375 133.6875 C 173.6875 133.765625 173.839844 134.03125 173.933594 134.28125 C 174.027344 134.53125 174.253906 134.910156 174.4375 135.121094 C 174.695312 135.414062 174.773438 135.574219 174.757812 135.761719 C 174.726562 136.230469 174.867188 136.898438 175.066406 137.242188 C 175.257812 137.570312 175.261719 137.640625 175.222656 138.730469 C 175.171875 139.992188 175.234375 140.265625 175.730469 141.148438 C 175.957031 141.550781 175.980469 141.671875 176.027344 142.785156 C 176.125 145.0625 176.152344 145.386719 176.28125 145.847656 C 176.4375 146.414062 176.859375 147.09375 177.671875 148.066406 C 178.480469 149.039062 178.890625 149.277344 180.261719 149.546875 C 180.808594 149.65625 181.367188 149.761719 181.5 149.789062 C 183.167969 150.117188 184.222656 149.929688 185.605469 149.074219 C 186.339844 148.621094 186.769531 148.542969 188.636719 148.527344 C 189.242188 148.523438 190.179688 148.472656 190.722656 148.417969 C 191.878906 148.296875 192.886719 148.203125 193.648438 148.140625 C 194.160156 148.097656 194.296875 148.066406 194.914062 147.851562 C 195.050781 147.804688 195.472656 147.710938 195.84375 147.640625 C 196.824219 147.460938 197.800781 147.097656 198.257812 146.746094 C 198.476562 146.574219 198.859375 146.316406 199.105469 146.171875 C 199.355469 146.03125 199.648438 145.816406 199.753906 145.699219 C 199.992188 145.433594 200.246094 145.308594 200.523438 145.324219 C 200.828125 145.339844 202.160156 144.738281 202.574219 144.394531 C 202.761719 144.238281 203.0625 144.050781 203.246094 143.988281 C 203.425781 143.929688 203.660156 143.8125 203.761719 143.730469 C 203.859375 143.648438 204.121094 143.53125 204.347656 143.464844 C 204.570312 143.402344 204.898438 143.257812 205.066406 143.148438 C 205.234375 143.035156 205.421875 142.945312 205.484375 142.949219 C 205.546875 142.953125 205.675781 142.898438 205.769531 142.839844 C 205.859375 142.78125 205.976562 142.738281 206.03125 142.742188 C 206.089844 142.746094 206.273438 142.664062 206.445312 142.5625 C 206.710938 142.40625 207.03125 142.316406 208.058594 142.09375 C 208.261719 142.050781 209.121094 141.296875 209.445312 140.878906 C 209.730469 140.503906 210.605469 139.714844 211.636719 138.890625 C 212.238281 138.40625 212.824219 137.65625 212.976562 137.15625 C 213.273438 136.191406 213.707031 135.734375 214.355469 135.699219 C 215.191406 135.65625 215.65625 135.394531 216.074219 134.726562 C 216.164062 134.585938 216.320312 134.480469 216.460938 134.457031 C 217.050781 134.355469 218.574219 133.421875 219.226562 132.761719 C 219.726562 132.253906 220.3125 131.441406 220.582031 130.890625 C 221.847656 128.304688 222.011719 127.726562 221.742188 126.695312 C 221.296875 124.972656 219.726562 124.011719 217.914062 124.359375 C 217.152344 124.507812 216.5625 124.859375 214.824219 126.242188 C 214.5 126.5 214.191406 126.734375 214.128906 126.765625 C 213.859375 126.894531 212.824219 128.097656 212.492188 128.664062 C 212.171875 129.214844 211.757812 129.625 211.546875 129.613281 C 211.457031 129.605469 210.527344 130.035156 210.121094 130.269531 C 209.9375 130.375 209.582031 130.488281 209.328125 130.523438 C 208.808594 130.59375 208.417969 130.734375 208.253906 130.910156 C 208.195312 130.972656 208.101562 131.019531 208.039062 131.015625 C 207.980469 131.007812 207.878906 131.085938 207.816406 131.171875 C 207.753906 131.261719 207.503906 131.40625 207.265625 131.5 C 207.023438 131.59375 206.8125 131.707031 206.785156 131.746094 C 206.753906 131.785156 206.546875 131.886719 206.328125 131.972656 C 206.109375 132.058594 205.828125 132.214844 205.699219 132.324219 C 205.203125 132.746094 205.054688 132.84375 204.691406 133 C 204.484375 133.089844 204.269531 133.230469 204.203125 133.3125 C 204.140625 133.394531 204.03125 133.460938 203.96875 133.457031 C 203.824219 133.445312 203.101562 132.867188 202.769531 132.503906 C 202.625 132.339844 202.355469 132.125 202.171875 132.015625 C 201.949219 131.882812 201.792969 131.703125 201.699219 131.480469 C 201.621094 131.296875 201.382812 130.980469 201.164062 130.769531 C 200.945312 130.558594 200.476562 130.058594 200.121094 129.65625 C 199.769531 129.253906 199.328125 128.792969 199.144531 128.640625 C 198.75 128.308594 198.714844 128.496094 199.46875 126.566406 C 200.050781 125.089844 200.367188 124.050781 200.523438 123.074219 C 200.59375 122.625 200.683594 122.355469 200.878906 122.054688 C 201.199219 121.558594 201.378906 120.726562 201.355469 119.832031 C 201.335938 119.21875 201.433594 118.738281 201.675781 118.246094 C 202.144531 117.292969 202.296875 116.441406 202.125 115.769531 C 201.984375 115.234375 201.984375 115.230469 202.5 113.941406 C 202.851562 113.058594 203.09375 112.585938 203.261719 112.410156 C 203.566406 112.101562 203.644531 111.855469 203.621094 111.339844 C 203.597656 110.917969 203.335938 110.191406 203.132812 109.996094 C 202.996094 109.863281 203.011719 109.277344 203.15625 108.867188 C 203.207031 108.730469 203.453125 108.378906 203.699219 108.101562 C 203.945312 107.820312 204.148438 107.574219 204.148438 107.554688 C 204.148438 107.53125 204.277344 107.289062 204.425781 107.011719 C 204.574219 106.734375 204.804688 106.210938 204.925781 105.835938 C 205.046875 105.464844 205.320312 104.722656 205.535156 104.1875 C 206.070312 102.863281 206.742188 101.058594 207.078125 100.042969 C 207.234375 99.578125 207.566406 98.753906 207.816406 98.207031 C 208.328125 97.089844 208.507812 96.371094 208.59375 95.09375 C 208.726562 93.160156 208.105469 91.765625 206.734375 90.917969 C 206.21875 90.597656 206.167969 90.589844 205.304688 90.53125 C 205.128906 90.519531 204.960938 90.511719 204.800781 90.519531 Z M 159.847656 109.054688 C 159.765625 109.050781 159.671875 109.097656 159.484375 109.230469 C 159.085938 109.511719 158.921875 109.941406 158.855469 110.90625 C 158.765625 112.21875 159.085938 112.699219 160.554688 113.519531 C 160.621094 113.554688 160.808594 113.84375 160.976562 114.167969 C 161.371094 114.945312 162.488281 116.277344 164.175781 117.988281 C 164.832031 118.652344 166.113281 120.515625 166.261719 121.019531 C 166.386719 121.433594 166.761719 121.882812 167.175781 122.109375 C 167.519531 122.300781 168.378906 122.289062 168.855469 122.089844 C 169.765625 121.707031 170.441406 120.207031 170.457031 118.546875 C 170.46875 116.941406 169.730469 115.738281 168.023438 114.582031 C 167.59375 114.292969 167.171875 113.984375 167.089844 113.898438 C 166.800781 113.601562 165.769531 112.863281 165.210938 112.558594 C 164.902344 112.390625 164.539062 112.132812 164.398438 111.992188 C 164.253906 111.851562 164.003906 111.644531 163.832031 111.527344 C 163.660156 111.40625 163.449219 111.242188 163.363281 111.15625 C 163.28125 111.070312 162.929688 110.828125 162.585938 110.617188 C 161.691406 110.058594 161.550781 109.917969 161.480469 109.546875 C 161.398438 109.121094 161.386719 109.113281 160.742188 109.175781 C 160.3125 109.21875 160.152344 109.207031 160.007812 109.113281 C 159.945312 109.074219 159.898438 109.054688 159.847656 109.054688 Z M 159.847656 109.054688 " fill-opacity="1" fill-rule="nonzero"/></g><g clip-path="url(#3673b0cbb2)"><path fill="#80cc11" d="M 160.878906 122.605469 C 159.257812 122.605469 157.972656 123.730469 157.707031 125.433594 C 157.589844 126.203125 157.726562 126.875 158.441406 128.976562 C 158.574219 129.367188 158.691406 129.738281 158.699219 129.808594 C 158.730469 130.105469 159.507812 131.484375 159.929688 131.992188 C 160.339844 132.476562 160.59375 133.003906 160.507812 133.195312 C 160.472656 133.28125 160.558594 134.289062 160.644531 134.75 C 160.683594 134.960938 160.671875 135.339844 160.621094 135.59375 C 160.511719 136.105469 160.511719 136.511719 160.621094 136.726562 C 160.660156 136.804688 160.667969 136.910156 160.644531 136.964844 C 160.621094 137.023438 160.652344 137.140625 160.710938 137.230469 C 160.773438 137.320312 160.832031 137.601562 160.839844 137.855469 C 160.851562 138.113281 160.882812 138.351562 160.910156 138.390625 C 160.9375 138.433594 160.964844 138.660156 160.972656 138.898438 C 160.976562 139.132812 161.035156 139.445312 161.09375 139.605469 C 161.324219 140.210938 161.367188 140.390625 161.390625 140.785156 C 161.402344 141.007812 161.457031 141.261719 161.511719 141.351562 C 161.566406 141.4375 161.59375 141.558594 161.566406 141.613281 C 161.507812 141.746094 160.730469 142.230469 160.273438 142.421875 C 160.074219 142.503906 159.773438 142.683594 159.609375 142.820312 C 159.410156 142.984375 159.195312 143.066406 158.953125 143.078125 C 158.753906 143.089844 158.363281 143.207031 158.089844 143.34375 C 157.816406 143.476562 157.183594 143.753906 156.6875 143.953125 C 156.1875 144.148438 155.613281 144.402344 155.40625 144.523438 C 154.960938 144.78125 155.125 144.875 153.566406 143.515625 C 152.367188 142.472656 151.488281 141.832031 150.621094 141.355469 C 150.222656 141.136719 150.003906 140.953125 149.785156 140.667969 C 149.425781 140.199219 148.703125 139.75 147.851562 139.476562 C 147.265625 139.285156 146.847656 139.039062 146.464844 138.644531 C 145.726562 137.878906 144.972656 137.441406 144.28125 137.378906 C 143.730469 137.328125 143.730469 137.324219 142.691406 136.40625 C 141.980469 135.773438 141.605469 135.394531 141.5 135.175781 C 141.308594 134.785156 141.105469 134.625 140.613281 134.476562 C 140.207031 134.351562 139.4375 134.351562 139.183594 134.476562 C 139.015625 134.558594 138.464844 134.351562 138.132812 134.074219 C 138.015625 133.980469 137.777344 133.640625 137.59375 133.3125 C 137.414062 132.984375 137.25 132.707031 137.230469 132.699219 C 137.214844 132.691406 137.015625 132.488281 136.808594 132.253906 C 136.597656 132.019531 136.175781 131.640625 135.867188 131.398438 C 135.554688 131.160156 134.953125 130.652344 134.523438 130.269531 C 133.453125 129.316406 131.980469 128.078125 131.136719 127.414062 C 130.75 127.113281 130.082031 126.519531 129.648438 126.097656 C 128.765625 125.242188 128.15625 124.828125 126.980469 124.316406 C 125.207031 123.539062 123.6875 123.65625 122.425781 124.660156 C 121.953125 125.039062 121.925781 125.074219 121.578125 125.867188 C 121.003906 127.167969 121.15625 128.101562 122.148438 129.246094 C 122.65625 129.832031 122.65625 129.832031 123.898438 130.386719 C 125.09375 130.917969 125.492188 131.15625 125.960938 131.628906 C 126.21875 131.886719 127.375 132.558594 127.683594 132.628906 C 127.800781 132.65625 128.132812 132.832031 128.417969 133.011719 C 130.441406 134.296875 131.617188 134.945312 133.113281 135.601562 C 134.660156 136.277344 134.660156 136.277344 134.886719 137.027344 C 135.152344 137.910156 135.535156 138.640625 135.925781 139 C 136.082031 139.144531 136.238281 139.324219 136.277344 139.40625 C 136.515625 139.886719 138.128906 141.15625 140.027344 142.351562 C 140.511719 142.65625 140.9375 142.9375 140.976562 142.972656 C 141.019531 143.015625 140.929688 143.339844 140.757812 143.792969 C 140.519531 144.421875 140.472656 144.632812 140.484375 145.15625 C 140.496094 145.777344 140.492188 145.777344 140.058594 146.078125 C 139.179688 146.6875 138.949219 147.007812 138.308594 148.433594 C 137.601562 150.007812 137.550781 150.382812 137.933594 151.40625 C 138.332031 152.472656 138.769531 152.921875 139.878906 153.414062 C 140.375 153.636719 140.855469 153.894531 140.949219 153.992188 C 141.046875 154.09375 141.195312 154.207031 141.28125 154.246094 C 141.523438 154.351562 141.621094 154.652344 141.503906 154.917969 C 141.421875 155.105469 141.265625 155.195312 140.644531 155.425781 C 139.105469 155.996094 138.820312 156.648438 139.363281 158.324219 C 139.535156 158.859375 139.574219 159.164062 139.527344 159.503906 C 139.441406 160.15625 139.464844 160.519531 139.597656 160.683594 C 139.660156 160.761719 139.691406 160.875 139.671875 160.925781 C 139.621094 161.03125 139.960938 161.726562 140.253906 162.128906 C 140.484375 162.445312 140.484375 162.453125 140.175781 162.707031 C 139.777344 163.035156 139.308594 164.0625 139.257812 164.714844 C 139.183594 165.667969 139.535156 166.738281 140.164062 167.460938 C 140.328125 167.652344 140.582031 167.980469 140.734375 168.199219 C 141.222656 168.902344 141.402344 169.03125 142.796875 169.644531 C 145.335938 170.761719 146.1875 171.0625 146.738281 171.039062 C 147.199219 171.023438 147.933594 170.734375 148.023438 170.53125 C 148.101562 170.355469 148.449219 170.324219 149.230469 170.433594 C 150.234375 170.570312 151.117188 170.503906 151.535156 170.253906 C 151.636719 170.191406 151.9375 170.140625 152.203125 170.136719 C 152.472656 170.132812 152.90625 170.050781 153.171875 169.945312 C 153.53125 169.804688 153.710938 169.785156 153.886719 169.859375 C 154.316406 170.046875 154.980469 170.140625 155.375 170.070312 C 155.746094 170 155.824219 170.015625 156.839844 170.425781 C 158.011719 170.898438 158.289062 170.9375 159.289062 170.769531 C 159.746094 170.695312 159.863281 170.710938 160.929688 171.039062 C 163.109375 171.71875 163.425781 171.804688 163.902344 171.839844 C 164.492188 171.882812 165.277344 171.707031 166.46875 171.273438 C 167.65625 170.84375 168.011719 170.539062 168.726562 169.335938 C 169.011719 168.859375 169.304688 168.378906 169.375 168.261719 C 170.246094 166.804688 170.429688 165.753906 170.089844 164.164062 C 169.90625 163.320312 169.976562 162.878906 170.59375 161.121094 C 170.792969 160.550781 171.066406 159.652344 171.195312 159.125 C 171.472656 157.996094 171.722656 157.019531 171.921875 156.28125 C 172.058594 155.785156 172.074219 155.644531 172.078125 154.992188 C 172.078125 154.84375 172.132812 154.421875 172.195312 154.050781 C 172.355469 153.066406 172.34375 152.023438 172.164062 151.472656 C 172.078125 151.210938 171.960938 150.757812 171.910156 150.476562 C 171.859375 150.195312 171.757812 149.859375 171.683594 149.71875 C 171.511719 149.40625 171.488281 149.121094 171.597656 148.867188 C 171.714844 148.585938 171.589844 147.128906 171.40625 146.628906 C 171.320312 146.394531 171.253906 146.042969 171.257812 145.851562 C 171.261719 145.660156 171.226562 145.40625 171.183594 145.285156 C 171.140625 145.164062 171.117188 144.867188 171.136719 144.632812 C 171.152344 144.402344 171.121094 144.054688 171.074219 143.859375 C 171.023438 143.664062 171.007812 143.449219 171.03125 143.390625 C 171.054688 143.335938 171.050781 143.203125 171.023438 143.097656 C 171 142.992188 170.996094 142.867188 171.019531 142.8125 C 171.039062 142.761719 171.03125 142.554688 170.992188 142.359375 C 170.9375 142.058594 170.957031 141.726562 171.097656 140.6875 C 171.125 140.480469 170.699219 139.421875 170.414062 138.976562 C 170.160156 138.582031 169.710938 137.488281 169.28125 136.242188 C 169.03125 135.507812 168.519531 134.714844 168.101562 134.402344 C 167.292969 133.796875 167.015625 133.234375 167.199219 132.613281 C 167.441406 131.808594 167.347656 131.289062 166.863281 130.667969 C 166.757812 130.535156 166.703125 130.351562 166.726562 130.207031 C 166.828125 129.617188 166.464844 127.878906 166.0625 127.039062 C 165.753906 126.398438 165.195312 125.566406 164.769531 125.128906 C 162.761719 123.0625 162.265625 122.714844 161.203125 122.617188 C 161.09375 122.609375 160.988281 122.605469 160.878906 122.605469 Z M 112.128906 136.195312 C 111.804688 136.210938 111.503906 136.269531 111.191406 136.363281 C 109.566406 136.84375 108.957031 138.847656 109.972656 140.367188 C 110.429688 141.046875 110.707031 141.246094 111.824219 141.683594 C 112.351562 141.886719 113.300781 142.257812 113.929688 142.507812 C 114.5625 142.753906 115.351562 143.011719 115.683594 143.085938 C 116.019531 143.15625 116.566406 143.339844 116.898438 143.484375 C 117.410156 143.707031 119.144531 144.128906 119.402344 144.09375 C 119.441406 144.085938 120.089844 144.316406 120.84375 144.601562 C 122.003906 145.042969 122.296875 145.125 122.710938 145.132812 C 123.292969 145.144531 125.117188 145.894531 126.261719 146.597656 C 126.816406 146.9375 127.054688 147.039062 127.929688 147.296875 C 128.492188 147.464844 129.640625 147.878906 130.480469 148.21875 C 132.003906 148.835938 131.996094 148.832031 132.65625 148.753906 C 133.8125 148.617188 133.773438 148.648438 134.332031 147.640625 C 134.601562 147.15625 134.828125 146.753906 134.835938 146.75 C 134.90625 146.714844 134.6875 146.390625 134.554688 146.332031 C 134.433594 146.277344 134.335938 146.0625 134.214844 145.570312 C 133.957031 144.523438 133.800781 144.390625 131.636719 143.433594 C 129.9375 142.6875 129.9375 142.691406 129.5 142.738281 C 129.1875 142.773438 129.007812 142.75 128.882812 142.652344 C 128.78125 142.574219 128.566406 142.515625 128.355469 142.507812 C 128.082031 142.496094 127.734375 142.378906 126.847656 141.988281 C 125.757812 141.515625 125.675781 141.46875 125.417969 141.148438 C 125.148438 140.8125 125.117188 140.792969 123.355469 140.023438 C 122.375 139.59375 120.945312 139.007812 120.179688 138.722656 C 119.414062 138.4375 117.789062 137.828125 116.558594 137.359375 C 114.257812 136.480469 113.09375 136.148438 112.128906 136.195312 Z M 112.410156 152.585938 C 111.539062 152.589844 110.476562 153.023438 109.492188 153.785156 C 108.96875 154.1875 108.570312 155.226562 108.6875 155.855469 C 108.882812 156.917969 109.808594 157.574219 111.535156 157.898438 C 111.960938 157.976562 112.6875 158.179688 113.160156 158.339844 C 114.125 158.675781 114.507812 158.753906 115.367188 158.816406 C 115.914062 158.855469 116.253906 158.847656 117.464844 158.773438 C 117.71875 158.757812 118.722656 158.777344 119.691406 158.816406 C 120.664062 158.855469 121.660156 158.894531 121.902344 158.902344 C 122.148438 158.910156 122.882812 158.984375 123.535156 159.066406 C 124.839844 159.234375 126.933594 159.183594 127.996094 158.957031 C 128.808594 158.78125 128.90625 158.777344 130.097656 158.875 C 132.507812 159.074219 132.820312 159.054688 133.601562 158.628906 C 133.84375 158.5 134.070312 158.3125 134.109375 158.222656 C 134.277344 157.847656 133.109375 156.164062 132.683594 156.164062 C 132.421875 156.164062 130.957031 156.019531 130.25 155.925781 C 129.867188 155.871094 129.746094 155.824219 129.621094 155.691406 C 129.433594 155.480469 128.738281 155.339844 127.605469 155.292969 C 125.851562 155.214844 123.921875 154.96875 123.589844 154.773438 C 123.304688 154.609375 122.566406 154.414062 121.613281 154.25 C 121.429688 154.222656 120.890625 154.222656 120.414062 154.25 C 119.546875 154.308594 119.550781 154.304688 118.53125 153.804688 C 116.894531 153 114.726562 152.570312 112.410156 152.585938 Z M 134.820312 167.824219 C 133.808594 167.8125 132.792969 168.207031 131.648438 169.042969 C 131.230469 169.347656 130.796875 169.644531 130.6875 169.695312 C 130.308594 169.863281 129.273438 170.582031 128.796875 171.003906 C 128.535156 171.234375 128.171875 171.488281 127.992188 171.574219 C 127.808594 171.660156 127.527344 171.828125 127.359375 171.949219 C 127.1875 172.070312 126.957031 172.214844 126.847656 172.265625 C 126.738281 172.3125 126.386719 172.5625 126.070312 172.8125 C 125.242188 173.464844 125.066406 173.550781 124.691406 173.496094 C 124.265625 173.429688 124.261719 173.4375 124.101562 174.066406 C 123.996094 174.484375 123.929688 174.632812 123.792969 174.738281 C 123.636719 174.855469 123.628906 174.910156 123.726562 175.265625 C 123.855469 175.734375 124.199219 176.027344 125.085938 176.414062 C 126.292969 176.941406 126.859375 176.8125 128.128906 175.707031 C 128.183594 175.660156 128.523438 175.582031 128.882812 175.535156 C 129.75 175.425781 131.382812 174.820312 133.5625 173.808594 C 134.410156 173.414062 136.597656 172.84375 137.121094 172.875 C 137.554688 172.898438 138.105469 172.699219 138.457031 172.386719 C 138.753906 172.125 139.03125 171.308594 139.003906 170.792969 C 138.953125 169.808594 137.765625 168.664062 136.210938 168.09375 C 135.738281 167.921875 135.277344 167.828125 134.820312 167.824219 Z M 134.820312 167.824219 " fill-opacity="1" fill-rule="nonzero"/></g><g clip-path="url(#6d5834968b)"><path fill="#ff9900" d="M 230.414062 122.769531 C 230.132812 122.769531 229.789062 122.835938 229.324219 122.976562 C 228.0625 123.355469 227.71875 123.816406 227.472656 125.480469 C 227.460938 125.550781 227.253906 125.835938 227.007812 126.105469 C 226.421875 126.753906 225.566406 128.261719 224.558594 130.441406 C 224.167969 131.289062 222.871094 133.144531 222.453125 133.460938 C 222.109375 133.722656 221.816406 134.234375 221.75 134.699219 C 221.695312 135.089844 222.011719 135.886719 222.367188 136.261719 C 223.046875 136.976562 224.6875 137.085938 226.246094 136.511719 C 227.753906 135.957031 228.628906 134.84375 229.109375 132.839844 C 229.230469 132.339844 229.371094 131.832031 229.421875 131.722656 C 229.597656 131.347656 229.921875 130.128906 230.011719 129.5 C 230.0625 129.15625 230.171875 128.71875 230.253906 128.535156 C 230.335938 128.355469 230.441406 128.042969 230.492188 127.839844 C 230.542969 127.640625 230.628906 127.382812 230.679688 127.277344 C 230.730469 127.167969 230.832031 126.761719 230.914062 126.367188 C 231.117188 125.332031 231.199219 125.144531 231.523438 124.945312 C 231.886719 124.71875 231.886719 124.714844 231.601562 124.132812 C 231.410156 123.746094 231.371094 123.585938 231.40625 123.417969 C 231.445312 123.226562 231.414062 123.179688 231.109375 122.96875 C 230.90625 122.832031 230.691406 122.765625 230.414062 122.769531 Z M 253.875 127.574219 C 253.25 127.574219 252.515625 127.824219 251.65625 128.3125 C 251.285156 128.527344 250.597656 128.851562 250.132812 129.03125 C 249.179688 129.402344 248.835938 129.582031 248.144531 130.089844 C 247.699219 130.414062 247.445312 130.640625 246.574219 131.480469 C 246.390625 131.65625 245.609375 132.296875 244.84375 132.894531 C 244.078125 133.492188 243.296875 134.109375 243.105469 134.257812 C 242.917969 134.410156 242.3125 134.832031 241.757812 135.1875 C 240.652344 135.90625 239.097656 137.292969 238.433594 138.160156 C 237.929688 138.816406 237.855469 138.882812 236.882812 139.578125 C 234.917969 140.988281 234.691406 141.207031 234.371094 142.03125 C 234.269531 142.289062 234.214844 142.578125 234.242188 142.671875 C 234.359375 143.066406 236.34375 143.59375 236.667969 143.316406 C 236.863281 143.148438 238.074219 142.320312 238.675781 141.933594 C 239 141.726562 239.128906 141.671875 239.308594 141.695312 C 239.589844 141.730469 240.210938 141.386719 241.105469 140.691406 C 242.492188 139.617188 244.121094 138.566406 244.5 138.496094 C 244.820312 138.4375 245.507812 138.105469 246.339844 137.613281 C 246.5 137.515625 246.914062 137.167969 247.257812 136.835938 C 247.878906 136.234375 247.878906 136.234375 248.980469 135.957031 C 250.746094 135.511719 252.6875 134.4375 254.441406 132.925781 C 255.101562 132.355469 255.617188 131.34375 255.875 130.128906 C 256.011719 129.484375 255.652344 128.4375 255.15625 128.03125 C 254.789062 127.734375 254.363281 127.578125 253.875 127.574219 Z M 221.808594 139.222656 C 221.449219 139.242188 221.023438 139.355469 220.222656 139.589844 C 217.566406 140.382812 216.714844 140.707031 216.308594 141.078125 C 215.96875 141.390625 215.597656 142.085938 215.664062 142.296875 C 215.71875 142.480469 215.472656 142.726562 214.808594 143.152344 C 213.953125 143.695312 213.332031 144.320312 213.175781 144.78125 C 213.136719 144.894531 212.941406 145.125 212.738281 145.296875 C 212.539062 145.472656 212.257812 145.828125 212.121094 146.078125 C 211.9375 146.421875 211.824219 146.546875 211.644531 146.601562 C 211.191406 146.738281 210.613281 147.097656 210.363281 147.40625 C 210.125 147.699219 210.058594 147.734375 209.019531 148.078125 C 207.824219 148.476562 207.582031 148.632812 206.925781 149.40625 C 206.628906 149.757812 206.527344 149.820312 205.503906 150.253906 C 203.40625 151.148438 203.109375 151.292969 202.722656 151.578125 C 202.246094 151.925781 201.761719 152.558594 201.132812 153.660156 C 200.507812 154.761719 200.433594 155.222656 200.667969 156.601562 C 200.757812 157.152344 200.851562 157.710938 200.875 157.84375 C 201.15625 159.515625 201.699219 160.4375 202.988281 161.429688 C 203.671875 161.957031 203.898438 162.328125 204.570312 164.066406 C 204.789062 164.632812 205.167969 165.492188 205.414062 165.980469 C 205.933594 167.019531 206.375 167.933594 206.699219 168.625 C 206.917969 169.089844 206.992188 169.207031 207.414062 169.707031 C 207.507812 169.816406 207.746094 170.171875 207.941406 170.492188 C 208.457031 171.347656 209.144531 172.132812 209.636719 172.4375 C 209.871094 172.582031 210.246094 172.851562 210.46875 173.035156 C 210.6875 173.214844 210.984375 173.40625 211.132812 173.464844 C 211.464844 173.59375 211.675781 173.789062 211.757812 174.054688 C 211.851562 174.34375 212.886719 175.378906 213.355469 175.640625 C 213.570312 175.761719 213.839844 175.984375 213.964844 176.132812 C 214.085938 176.28125 214.277344 176.457031 214.386719 176.519531 C 214.5 176.585938 214.710938 176.789062 214.851562 176.976562 C 214.988281 177.164062 215.238281 177.417969 215.402344 177.535156 C 215.570312 177.652344 215.71875 177.800781 215.738281 177.859375 C 215.757812 177.921875 215.84375 178.019531 215.933594 178.082031 C 216.023438 178.144531 216.109375 178.242188 216.125 178.296875 C 216.140625 178.351562 216.277344 178.5 216.433594 178.625 C 216.671875 178.816406 216.875 179.082031 217.441406 179.964844 C 217.554688 180.140625 218.566406 180.679688 219.074219 180.832031 C 219.523438 180.96875 220.570312 181.503906 221.707031 182.179688 C 222.375 182.574219 223.28125 182.84375 223.800781 182.8125 C 224.808594 182.75 225.386719 182.996094 225.648438 183.59375 C 225.984375 184.359375 226.390625 184.703125 227.164062 184.859375 C 227.328125 184.894531 227.484375 185 227.558594 185.125 C 227.859375 185.640625 229.273438 186.734375 230.125 187.109375 C 230.773438 187.398438 231.742188 187.667969 232.351562 187.726562 C 235.222656 188 235.820312 187.9375 236.691406 187.324219 C 238.152344 186.300781 238.492188 184.5 237.53125 182.929688 C 237.125 182.265625 236.578125 181.84375 234.671875 180.703125 C 234.316406 180.488281 233.988281 180.277344 233.941406 180.230469 C 233.722656 180.023438 232.238281 179.484375 231.589844 179.375 C 230.960938 179.269531 230.425781 179.027344 230.363281 178.828125 C 230.335938 178.738281 229.613281 178.019531 229.25 177.71875 C 229.085938 177.585938 228.851562 177.289062 228.726562 177.0625 C 228.476562 176.605469 228.207031 176.292969 227.988281 176.199219 C 227.90625 176.167969 227.828125 176.09375 227.808594 176.035156 C 227.792969 175.976562 227.699219 175.90625 227.59375 175.878906 C 227.488281 175.851562 227.253906 175.671875 227.082031 175.480469 C 226.910156 175.289062 226.734375 175.125 226.6875 175.113281 C 226.640625 175.101562 226.46875 174.953125 226.3125 174.78125 C 226.15625 174.605469 225.90625 174.398438 225.757812 174.320312 C 225.1875 174.003906 225.046875 173.898438 224.773438 173.613281 C 224.617188 173.449219 224.410156 173.289062 224.3125 173.253906 C 224.210938 173.222656 224.113281 173.152344 224.097656 173.09375 C 224.054688 172.957031 224.332031 172.078125 224.558594 171.636719 C 224.65625 171.445312 224.773438 171.113281 224.8125 170.90625 C 224.855469 170.652344 224.96875 170.445312 225.144531 170.277344 C 225.289062 170.140625 225.503906 169.800781 225.625 169.523438 C 225.742188 169.242188 226.046875 168.628906 226.300781 168.15625 C 226.550781 167.683594 226.824219 167.109375 226.902344 166.882812 C 227.074219 166.398438 226.886719 166.433594 228.960938 166.460938 C 230.550781 166.480469 231.632812 166.414062 232.605469 166.214844 C 233.050781 166.121094 233.339844 166.113281 233.6875 166.1875 C 234.265625 166.3125 235.101562 166.191406 235.929688 165.851562 C 236.5 165.617188 236.984375 165.535156 237.53125 165.585938 C 238.589844 165.6875 239.449219 165.535156 240.015625 165.136719 C 240.46875 164.820312 240.464844 164.816406 241.851562 164.84375 C 242.804688 164.859375 243.347656 164.917969 243.570312 165.015625 C 243.96875 165.191406 244.214844 165.183594 244.6875 164.976562 C 245.078125 164.808594 245.667969 164.308594 245.777344 164.050781 C 245.855469 163.875 246.410156 163.675781 246.84375 163.667969 C 246.992188 163.664062 247.398438 163.773438 247.75 163.90625 C 248.097656 164.039062 248.40625 164.140625 248.425781 164.136719 C 248.445312 164.128906 248.71875 164.160156 249.03125 164.203125 C 249.339844 164.246094 249.910156 164.261719 250.304688 164.246094 C 250.695312 164.226562 251.484375 164.226562 252.058594 164.238281 C 253.492188 164.269531 255.421875 164.269531 256.492188 164.226562 C 256.980469 164.207031 257.875 164.222656 258.480469 164.265625 C 259.707031 164.347656 260.4375 164.261719 261.660156 163.894531 C 263.519531 163.335938 264.609375 162.265625 264.917969 160.683594 C 265.035156 160.089844 265.03125 160.042969 264.785156 159.214844 C 264.375 157.851562 263.648438 157.25 262.148438 157.019531 C 261.382812 156.902344 261.382812 156.894531 260.078125 157.277344 C 258.824219 157.644531 258.375 157.722656 257.710938 157.664062 C 257.34375 157.632812 256.011719 157.871094 255.734375 158.015625 C 255.625 158.074219 255.265625 158.15625 254.933594 158.199219 C 252.554688 158.53125 251.242188 158.796875 249.675781 159.265625 C 248.058594 159.75 248.0625 159.75 247.402344 159.324219 C 246.632812 158.824219 245.855469 158.519531 245.324219 158.496094 C 245.113281 158.488281 244.878906 158.445312 244.792969 158.410156 C 244.300781 158.199219 242.257812 158.277344 240.035156 158.59375 C 239.46875 158.675781 238.964844 158.738281 238.910156 158.734375 C 238.847656 158.730469 238.699219 158.429688 238.539062 157.972656 C 238.3125 157.339844 238.207031 157.148438 237.863281 156.753906 C 237.449219 156.289062 237.449219 156.289062 237.585938 155.777344 C 237.859375 154.746094 237.832031 154.347656 237.394531 152.84375 C 236.910156 151.1875 236.703125 150.878906 235.75 150.347656 C 234.753906 149.792969 234.140625 149.722656 232.972656 150.066406 C 232.453125 150.21875 231.910156 150.335938 231.773438 150.324219 C 231.636719 150.308594 231.453125 150.320312 231.359375 150.347656 C 231.113281 150.421875 230.839844 150.257812 230.757812 149.984375 C 230.699219 149.785156 230.757812 149.605469 231.085938 149.027344 C 231.886719 147.59375 231.6875 146.917969 230.183594 145.992188 C 229.707031 145.699219 229.472656 145.496094 229.285156 145.207031 C 228.929688 144.652344 228.675781 144.386719 228.46875 144.34375 C 228.371094 144.328125 228.28125 144.269531 228.265625 144.214844 C 228.230469 144.105469 227.511719 143.785156 227.027344 143.667969 C 226.648438 143.578125 226.648438 143.574219 226.71875 143.183594 C 226.808594 142.675781 226.5 141.582031 226.117188 141.054688 C 225.554688 140.28125 224.597656 139.695312 223.648438 139.550781 C 223.398438 139.511719 222.988281 139.425781 222.730469 139.359375 C 222.417969 139.277344 222.195312 139.230469 221.960938 139.222656 C 221.910156 139.222656 221.859375 139.21875 221.808594 139.222656 Z M 263.304688 140.519531 C 262.957031 140.535156 262.578125 140.644531 261.957031 140.859375 C 261.421875 141.042969 260.457031 141.371094 259.8125 141.589844 C 259.171875 141.808594 258.398438 142.121094 258.097656 142.285156 C 257.792969 142.445312 257.265625 142.664062 256.921875 142.769531 C 256.386719 142.929688 254.792969 143.726562 254.617188 143.921875 C 254.589844 143.949219 253.945312 144.199219 253.183594 144.46875 C 252.015625 144.882812 251.746094 145.003906 251.421875 145.265625 C 250.972656 145.636719 249.09375 146.242188 247.765625 146.449219 C 247.121094 146.546875 246.878906 146.625 246.042969 146.996094 C 245.507812 147.230469 244.367188 147.65625 243.507812 147.941406 C 241.941406 148.457031 241.941406 148.464844 241.488281 148.949219 C 240.695312 149.800781 240.710938 149.746094 240.9375 150.875 C 241.046875 151.417969 241.132812 151.875 241.128906 151.882812 C 241.097656 151.957031 241.480469 152.0625 241.621094 152.019531 C 241.746094 151.980469 241.960938 152.085938 242.375 152.382812 C 243.246094 153.011719 243.453125 153.007812 245.722656 152.332031 C 247.5 151.804688 247.496094 151.808594 247.796875 151.492188 C 248.011719 151.261719 248.164062 151.160156 248.320312 151.152344 C 248.449219 151.144531 248.65625 151.054688 248.820312 150.925781 C 249.03125 150.753906 249.375 150.625 250.300781 150.347656 C 251.441406 150.003906 251.535156 149.980469 251.941406 150.058594 C 252.363281 150.140625 252.394531 150.136719 254.238281 149.582031 C 255.261719 149.273438 256.738281 148.792969 257.503906 148.515625 C 258.273438 148.234375 259.910156 147.65625 261.148438 147.214844 C 264.246094 146.121094 265.171875 145.589844 265.882812 144.5 C 266.808594 143.082031 265.96875 141.160156 264.210938 140.660156 C 263.914062 140.578125 263.6875 140.527344 263.453125 140.519531 C 263.402344 140.519531 263.355469 140.515625 263.304688 140.519531 Z M 263.304688 140.519531 " fill-opacity="1" fill-rule="nonzero"/></g><path fill="#0099dd" d="M 157.214844 172.070312 C 156.789062 172.066406 156.054688 172.144531 155.675781 172.253906 C 155.222656 172.382812 154.050781 172.5 152.734375 172.546875 C 151.957031 172.578125 151.042969 172.828125 150.621094 173.140625 C 149.804688 173.734375 149.1875 173.851562 148.644531 173.488281 C 147.945312 173.027344 147.414062 172.957031 146.679688 173.242188 C 146.523438 173.304688 146.335938 173.300781 146.207031 173.238281 C 145.671875 172.96875 143.898438 172.8125 142.980469 172.953125 C 142.277344 173.0625 141.320312 173.355469 140.777344 173.636719 C 138.214844 174.957031 137.738281 175.332031 137.335938 176.316406 C 136.664062 177.96875 137.355469 179.667969 139.015625 180.46875 C 139.714844 180.804688 140.398438 180.871094 142.617188 180.800781 C 143.03125 180.789062 143.425781 180.789062 143.492188 180.800781 C 143.785156 180.859375 145.335938 180.507812 145.941406 180.246094 C 146.527344 179.996094 147.105469 179.90625 147.265625 180.046875 C 147.335938 180.105469 148.324219 180.316406 148.792969 180.371094 C 149.003906 180.394531 149.367188 180.523438 149.59375 180.648438 C 150.050781 180.898438 150.441406 181.007812 150.675781 180.96875 C 150.761719 180.953125 150.871094 180.96875 150.917969 181.011719 C 150.960938 181.050781 151.089844 181.054688 151.195312 181.023438 C 151.296875 180.988281 151.578125 181.019531 151.828125 181.085938 C 152.078125 181.152344 152.316406 181.199219 152.363281 181.183594 C 152.410156 181.167969 152.636719 181.203125 152.863281 181.261719 C 153.089844 181.324219 153.40625 181.367188 153.574219 181.355469 C 154.226562 181.3125 154.40625 181.316406 154.789062 181.410156 C 155.007812 181.460938 155.265625 181.484375 155.367188 181.460938 C 155.46875 181.433594 155.59375 181.445312 155.636719 181.484375 C 155.75 181.578125 155.984375 182.460938 156.03125 182.953125 C 156.054688 183.167969 156.136719 183.515625 156.21875 183.710938 C 156.316406 183.949219 156.34375 184.175781 156.285156 184.410156 C 156.238281 184.605469 156.234375 185.007812 156.285156 185.308594 C 156.332031 185.609375 156.414062 186.289062 156.457031 186.820312 C 156.5 187.355469 156.578125 187.984375 156.636719 188.21875 C 156.753906 188.71875 156.890625 188.582031 155.132812 189.679688 C 153.785156 190.523438 152.917969 191.179688 152.210938 191.871094 C 151.882812 192.191406 151.644531 192.347656 151.308594 192.472656 C 150.757812 192.679688 150.125 193.242188 149.609375 193.972656 C 149.257812 194.480469 148.894531 194.800781 148.40625 195.050781 C 147.457031 195.535156 146.820312 196.136719 146.558594 196.777344 C 146.347656 197.289062 146.355469 197.289062 145.171875 198.015625 C 144.359375 198.511719 143.878906 198.757812 143.640625 198.796875 C 143.210938 198.863281 142.996094 199.007812 142.710938 199.433594 C 142.472656 199.785156 142.25 200.527344 142.296875 200.804688 C 142.328125 200.992188 141.96875 201.457031 141.609375 201.699219 C 141.484375 201.78125 141.085938 201.910156 140.722656 201.988281 C 140.355469 202.0625 140.039062 202.144531 140.027344 202.160156 C 140.011719 202.175781 139.769531 202.296875 139.484375 202.429688 C 139.199219 202.5625 138.703125 202.855469 138.382812 203.082031 C 138.0625 203.308594 137.402344 203.734375 136.910156 204.035156 C 135.6875 204.78125 134.078125 205.832031 133.199219 206.445312 C 132.796875 206.726562 132.035156 207.195312 131.503906 207.484375 C 130.429688 208.078125 129.855469 208.546875 129.023438 209.519531 C 127.765625 210.992188 127.425781 212.472656 128.019531 213.972656 C 128.246094 214.535156 128.277344 214.578125 128.933594 215.140625 C 130.015625 216.066406 130.957031 216.1875 132.34375 215.570312 C 133.050781 215.257812 133.046875 215.25 133.9375 214.222656 C 134.792969 213.238281 135.140625 212.929688 135.730469 212.621094 C 136.050781 212.449219 137.039062 211.535156 137.195312 211.261719 C 137.253906 211.15625 137.515625 210.890625 137.773438 210.671875 C 139.59375 209.105469 140.546875 208.171875 141.609375 206.929688 C 142.707031 205.648438 142.707031 205.648438 143.492188 205.652344 C 144.414062 205.65625 145.230469 205.503906 145.6875 205.234375 C 145.871094 205.128906 146.089844 205.027344 146.183594 205.011719 C 146.710938 204.921875 148.386719 203.753906 150.085938 202.289062 C 150.515625 201.914062 150.90625 201.589844 150.953125 201.5625 C 151.003906 201.535156 151.292969 201.703125 151.671875 202 C 152.207031 202.410156 152.40625 202.515625 152.910156 202.65625 C 153.507812 202.824219 153.503906 202.828125 153.667969 203.332031 C 153.996094 204.351562 154.234375 204.675781 155.417969 205.699219 C 156.71875 206.832031 157.066406 206.980469 158.15625 206.914062 C 159.292969 206.839844 159.839844 206.5625 160.636719 205.644531 C 160.992188 205.234375 161.390625 204.847656 161.511719 204.785156 C 161.632812 204.722656 161.78125 204.609375 161.84375 204.539062 C 162.011719 204.339844 162.332031 204.328125 162.550781 204.515625 C 162.707031 204.648438 162.75 204.828125 162.792969 205.492188 C 162.890625 207.128906 163.429688 207.597656 165.191406 207.5625 C 165.753906 207.554688 166.058594 207.601562 166.375 207.742188 C 166.972656 208.015625 167.328125 208.097656 167.527344 208.019531 C 167.617188 207.984375 167.730469 207.984375 167.773438 208.019531 C 167.859375 208.097656 168.632812 207.980469 169.101562 207.816406 C 169.46875 207.6875 169.476562 207.6875 169.632812 208.054688 C 169.828125 208.53125 170.679688 209.277344 171.289062 209.515625 C 172.179688 209.863281 173.304688 209.835938 174.179688 209.445312 C 174.410156 209.34375 174.800781 209.195312 175.054688 209.113281 C 175.871094 208.851562 176.042969 208.71875 177.035156 207.5625 C 178.84375 205.464844 179.382812 204.730469 179.523438 204.199219 C 179.640625 203.753906 179.578125 202.972656 179.40625 202.828125 C 179.261719 202.703125 179.328125 202.359375 179.660156 201.640625 C 180.082031 200.722656 180.277344 199.863281 180.160156 199.390625 C 180.128906 199.277344 180.167969 198.972656 180.246094 198.714844 C 180.320312 198.460938 180.359375 198.019531 180.335938 197.738281 C 180.304688 197.351562 180.335938 197.175781 180.460938 197.03125 C 180.765625 196.671875 181.054688 196.0625 181.101562 195.664062 C 181.140625 195.289062 181.175781 195.21875 181.863281 194.367188 C 182.652344 193.386719 182.773438 193.132812 182.902344 192.128906 C 182.964844 191.671875 183.011719 191.5625 183.636719 190.640625 C 184.917969 188.753906 185.097656 188.472656 185.269531 188.027344 C 185.480469 187.476562 185.539062 186.679688 185.472656 185.414062 C 185.402344 184.152344 185.210938 183.722656 184.269531 182.6875 C 183.894531 182.277344 183.519531 181.855469 183.425781 181.753906 C 182.285156 180.5 181.328125 180.019531 179.707031 179.886719 C 178.847656 179.8125 178.457031 179.613281 176.949219 178.511719 C 176.460938 178.15625 175.671875 177.640625 175.203125 177.363281 C 174.203125 176.769531 173.339844 176.242188 172.691406 175.839844 C 172.253906 175.566406 172.125 175.507812 171.503906 175.316406 C 171.363281 175.273438 170.96875 175.101562 170.628906 174.933594 C 169.734375 174.496094 168.730469 174.203125 168.152344 174.214844 C 167.875 174.21875 167.414062 174.199219 167.132812 174.164062 C 166.847656 174.132812 166.492188 174.128906 166.335938 174.160156 C 165.988281 174.230469 165.707031 174.183594 165.496094 174.003906 C 165.257812 173.808594 163.824219 173.5 163.289062 173.53125 C 163.042969 173.546875 162.691406 173.511719 162.507812 173.453125 C 162.324219 173.394531 162.070312 173.347656 161.941406 173.355469 C 161.8125 173.359375 161.527344 173.296875 161.308594 173.210938 C 161.089844 173.128906 160.746094 173.054688 160.542969 173.046875 C 160.339844 173.035156 160.136719 172.992188 160.089844 172.953125 C 160.039062 172.914062 159.910156 172.878906 159.800781 172.875 C 159.691406 172.867188 159.570312 172.832031 159.527344 172.792969 C 159.484375 172.757812 159.285156 172.710938 159.085938 172.691406 C 158.78125 172.65625 158.464844 172.539062 157.507812 172.105469 C 157.460938 172.082031 157.355469 172.070312 157.214844 172.070312 Z M 152.734375 208.5 C 152.617188 208.503906 152.386719 208.59375 152.3125 208.675781 C 152.230469 208.777344 151.992188 208.800781 151.484375 208.773438 C 150.40625 208.71875 150.234375 208.832031 148.6875 210.625 C 147.476562 212.03125 147.480469 212.027344 147.402344 212.457031 C 147.34375 212.769531 147.269531 212.933594 147.144531 213.023438 C 147.039062 213.097656 146.914062 213.289062 146.847656 213.484375 C 146.757812 213.742188 146.539062 214.046875 145.910156 214.78125 C 145.140625 215.683594 145.074219 215.742188 144.691406 215.894531 C 144.292969 216.054688 144.261719 216.082031 143.011719 217.542969 C 142.316406 218.359375 141.339844 219.550781 140.84375 220.199219 C 140.351562 220.847656 139.292969 222.226562 138.488281 223.261719 C 136.476562 225.859375 135.984375 226.804688 135.976562 228.109375 C 135.964844 229.800781 137.710938 230.964844 139.460938 230.433594 C 140.246094 230.195312 140.515625 229.988281 141.257812 229.042969 C 141.605469 228.597656 142.230469 227.804688 142.65625 227.273438 C 143.078125 226.742188 143.566406 226.066406 143.730469 225.765625 C 143.898438 225.464844 144.21875 224.988281 144.453125 224.714844 C 144.8125 224.289062 145.722656 222.761719 145.765625 222.507812 C 145.769531 222.46875 146.179688 221.914062 146.675781 221.277344 C 147.433594 220.296875 147.59375 220.046875 147.722656 219.652344 C 147.902344 219.097656 149.15625 217.566406 150.160156 216.675781 C 150.644531 216.246094 150.808594 216.046875 151.308594 215.285156 C 151.632812 214.796875 152.367188 213.820312 152.9375 213.117188 C 153.972656 211.835938 153.964844 211.839844 154.082031 211.183594 C 154.285156 210.042969 154.304688 210.09375 153.503906 209.265625 C 153.117188 208.867188 152.800781 208.539062 152.800781 208.527344 C 152.796875 208.507812 152.769531 208.496094 152.734375 208.496094 Z M 176.65625 211.480469 C 175.722656 211.496094 174.515625 212.253906 173.640625 213.410156 C 172.671875 214.695312 172.539062 216.097656 173.222656 218.042969 C 173.390625 218.53125 173.550781 219.03125 173.566406 219.148438 C 173.621094 219.558594 174.007812 220.761719 174.273438 221.339844 C 174.417969 221.65625 174.566406 222.082031 174.59375 222.28125 C 174.625 222.476562 174.699219 222.800781 174.765625 223 C 174.832031 223.195312 174.898438 223.445312 174.914062 223.566406 C 174.929688 223.683594 175.066406 224.09375 175.214844 224.46875 C 175.601562 225.449219 175.632812 225.640625 175.46875 225.980469 C 175.28125 226.371094 175.289062 226.382812 175.84375 226.71875 C 176.214844 226.941406 176.335938 227.050781 176.398438 227.210938 C 176.46875 227.394531 176.523438 227.410156 176.890625 227.421875 C 177.378906 227.433594 177.757812 227.191406 178.386719 226.453125 C 179.242188 225.453125 179.273438 224.875 178.582031 223.34375 C 178.554688 223.277344 178.578125 222.925781 178.640625 222.570312 C 178.785156 221.707031 178.679688 219.984375 178.34375 217.605469 C 178.214844 216.683594 178.296875 214.414062 178.480469 213.921875 C 178.628906 213.515625 178.59375 212.933594 178.398438 212.507812 C 178.234375 212.148438 177.539062 211.648438 177.039062 211.523438 C 176.917969 211.496094 176.789062 211.480469 176.65625 211.480469 Z M 163.253906 212.480469 C 162.597656 212.503906 161.285156 212.980469 161.1875 213.3125 C 161.109375 213.5625 160.554688 214.921875 160.257812 215.570312 C 160.09375 215.921875 160.007812 216.03125 159.84375 216.109375 C 159.585938 216.230469 159.253906 216.847656 158.878906 217.917969 C 158.296875 219.570312 157.496094 221.339844 157.214844 221.601562 C 156.972656 221.824219 156.574219 222.476562 156.144531 223.34375 C 156.0625 223.507812 155.902344 224.023438 155.792969 224.488281 C 155.59375 225.328125 155.589844 225.328125 154.8125 226.160156 C 153.570312 227.488281 152.527344 229.4375 151.871094 231.65625 C 151.625 232.492188 151.738281 233.628906 152.179688 234.792969 C 152.414062 235.410156 153.28125 236.09375 153.921875 236.164062 C 154.992188 236.285156 155.898438 235.59375 156.710938 234.035156 C 156.910156 233.65625 157.308594 233.015625 157.601562 232.609375 C 158.203125 231.785156 158.390625 231.441406 158.699219 230.640625 C 158.894531 230.128906 158.984375 229.796875 159.265625 228.621094 C 159.324219 228.371094 159.636719 227.421875 159.953125 226.503906 C 160.273438 225.585938 160.601562 224.644531 160.679688 224.414062 C 160.757812 224.183594 161.039062 223.503906 161.308594 222.90625 C 161.851562 221.707031 162.414062 219.695312 162.503906 218.609375 C 162.570312 217.78125 162.59375 217.691406 163.03125 216.578125 C 163.921875 214.332031 163.992188 214.027344 163.816406 213.160156 C 163.757812 212.886719 163.652344 212.613281 163.582031 212.550781 C 163.523438 212.5 163.40625 212.476562 163.253906 212.484375 Z M 163.253906 212.480469 " fill-opacity="1" fill-rule="nonzero"/><path fill="#bb33aa" d="M 202.867188 173.671875 C 202.320312 173.679688 201.847656 173.847656 201.066406 174.238281 C 200.566406 174.488281 200.058594 174.75 199.9375 174.808594 C 198.421875 175.570312 197.699219 176.355469 197.132812 177.878906 C 196.828125 178.6875 196.527344 179.015625 195.0625 180.167969 C 194.585938 180.539062 193.882812 181.15625 193.488281 181.53125 C 192.644531 182.332031 191.902344 183.015625 191.339844 183.53125 C 190.957031 183.878906 190.867188 183.996094 190.511719 184.546875 C 190.433594 184.667969 190.167969 184.988281 189.917969 185.269531 C 189.253906 186.011719 188.699219 186.90625 188.554688 187.464844 C 188.488281 187.734375 188.339844 188.167969 188.230469 188.429688 C 188.121094 188.695312 188.023438 189.039062 188.015625 189.195312 C 187.988281 189.550781 187.859375 189.804688 187.632812 189.960938 C 187.378906 190.136719 186.699219 191.433594 186.585938 191.957031 C 186.53125 192.195312 186.398438 192.527344 186.289062 192.6875 C 186.183594 192.847656 186.074219 193.085938 186.042969 193.210938 C 186.015625 193.335938 185.882812 193.589844 185.742188 193.777344 C 185.601562 193.964844 185.4375 194.277344 185.375 194.46875 C 185.308594 194.664062 185.214844 194.847656 185.164062 194.882812 C 185.113281 194.917969 185.046875 195.03125 185.011719 195.132812 C 184.976562 195.238281 184.902344 195.34375 184.855469 195.375 C 184.808594 195.40625 184.714844 195.589844 184.640625 195.773438 C 184.527344 196.058594 184.328125 196.324219 183.648438 197.128906 C 183.515625 197.285156 183.296875 198.414062 183.296875 198.941406 C 183.300781 199.410156 183.097656 200.566406 182.789062 201.851562 C 182.605469 202.601562 182.601562 203.550781 182.789062 204.039062 C 183.144531 204.984375 183.089844 205.605469 182.597656 206.03125 C 181.960938 206.578125 181.75 207.070312 181.828125 207.851562 C 181.84375 208.019531 181.796875 208.199219 181.699219 208.308594 C 181.292969 208.75 180.664062 210.417969 180.554688 211.339844 C 180.46875 212.046875 180.496094 213.046875 180.621094 213.644531 C 181.203125 216.464844 181.429688 217.019531 182.269531 217.671875 C 183.679688 218.765625 185.507812 218.5625 186.726562 217.179688 C 187.242188 216.597656 187.492188 215.953125 188.019531 213.796875 C 188.117188 213.398438 188.222656 213.023438 188.253906 212.960938 C 188.386719 212.695312 188.46875 211.113281 188.382812 210.460938 C 188.300781 209.828125 188.367188 209.25 188.542969 209.132812 C 188.621094 209.078125 189.09375 208.183594 189.269531 207.746094 C 189.351562 207.550781 189.5625 207.230469 189.742188 207.046875 C 190.109375 206.675781 190.332031 206.332031 190.355469 206.09375 C 190.363281 206.007812 190.40625 205.910156 190.457031 205.878906 C 190.507812 205.84375 190.550781 205.726562 190.542969 205.621094 C 190.539062 205.511719 190.640625 205.246094 190.773438 205.023438 C 190.902344 204.800781 191.007812 204.578125 191.007812 204.53125 C 191.003906 204.484375 191.101562 204.277344 191.222656 204.074219 C 191.339844 203.875 191.46875 203.578125 191.503906 203.410156 C 191.640625 202.773438 191.695312 202.605469 191.886719 202.261719 C 191.996094 202.066406 192.089844 201.820312 192.089844 201.714844 C 192.089844 201.609375 192.132812 201.496094 192.183594 201.460938 C 192.300781 201.382812 193.226562 201.394531 193.714844 201.480469 C 193.929688 201.519531 194.273438 201.53125 194.484375 201.503906 C 194.742188 201.472656 194.96875 201.507812 195.179688 201.628906 C 195.351562 201.726562 195.746094 201.835938 196.046875 201.867188 C 196.351562 201.902344 197.023438 202.011719 197.550781 202.113281 C 198.078125 202.214844 198.707031 202.308594 198.949219 202.316406 C 199.460938 202.335938 199.371094 202.164062 199.957031 204.148438 C 200.40625 205.671875 200.792969 206.695312 201.269531 207.5625 C 201.488281 207.964844 201.582031 208.226562 201.613281 208.582031 C 201.664062 209.171875 202.03125 209.941406 202.597656 210.632812 C 202.988281 211.109375 203.203125 211.539062 203.3125 212.078125 C 203.527344 213.121094 203.933594 213.890625 204.480469 214.316406 C 204.917969 214.652344 204.917969 214.65625 205.300781 215.988281 C 205.5625 216.902344 205.675781 217.433594 205.644531 217.671875 C 205.59375 218.105469 205.671875 218.34375 206.007812 218.738281 C 206.285156 219.058594 206.933594 219.46875 207.214844 219.5 C 207.402344 219.519531 207.757812 219.996094 207.894531 220.410156 C 207.9375 220.550781 207.960938 220.972656 207.9375 221.34375 C 207.910156 221.71875 207.898438 222.035156 207.910156 222.050781 C 207.921875 222.070312 207.972656 222.339844 208.023438 222.648438 C 208.074219 222.957031 208.226562 223.507812 208.359375 223.878906 C 208.492188 224.246094 208.726562 224.996094 208.882812 225.550781 C 209.273438 226.925781 209.847656 228.765625 210.203125 229.773438 C 210.363281 230.238281 210.609375 231.09375 210.75 231.683594 C 211.03125 232.878906 211.324219 233.558594 212.035156 234.621094 C 213.117188 236.230469 214.457031 236.949219 216.0625 236.78125 C 216.664062 236.714844 216.714844 236.699219 217.433594 236.21875 C 218.621094 235.429688 218.984375 234.558594 218.765625 233.058594 C 218.652344 232.292969 218.652344 232.289062 217.902344 231.160156 C 217.183594 230.070312 216.980469 229.660156 216.835938 229.007812 C 216.761719 228.648438 216.140625 227.460938 215.921875 227.234375 C 215.835938 227.148438 215.652344 226.820312 215.507812 226.515625 C 214.492188 224.34375 213.84375 223.175781 212.933594 221.816406 C 211.996094 220.414062 212 220.414062 212.214844 219.660156 C 212.464844 218.773438 212.527344 217.949219 212.394531 217.433594 C 212.339844 217.230469 212.308594 216.988281 212.320312 216.898438 C 212.375 216.363281 211.699219 214.4375 210.742188 212.410156 C 210.5 211.894531 210.292969 211.429688 210.28125 211.375 C 210.269531 211.316406 210.507812 211.09375 210.898438 210.804688 C 211.4375 210.402344 211.589844 210.242188 211.863281 209.796875 C 212.1875 209.265625 212.1875 209.269531 212.71875 209.25 C 213.789062 209.207031 214.15625 209.0625 215.464844 208.203125 C 216.90625 207.253906 217.152344 206.960938 217.378906 205.898438 C 217.617188 204.78125 217.496094 204.179688 216.824219 203.167969 C 216.527344 202.714844 216.261719 202.230469 216.234375 202.097656 C 216.207031 201.960938 216.132812 201.78125 216.082031 201.703125 C 215.9375 201.488281 216.015625 201.183594 216.253906 201.027344 C 216.425781 200.910156 216.613281 200.910156 217.261719 201.050781 C 218.867188 201.394531 219.460938 201.003906 219.902344 199.296875 C 220.046875 198.753906 220.171875 198.46875 220.394531 198.203125 C 220.820312 197.699219 220.996094 197.386719 220.976562 197.175781 C 220.964844 197.078125 220.996094 196.96875 221.042969 196.9375 C 221.140625 196.871094 221.226562 196.105469 221.195312 195.609375 C 221.171875 195.21875 221.175781 195.207031 221.570312 195.160156 C 222.082031 195.097656 223.03125 194.488281 223.425781 193.964844 C 224 193.203125 224.277344 192.113281 224.140625 191.164062 C 224.101562 190.914062 224.070312 190.492188 224.058594 190.226562 C 224.023438 189.371094 223.9375 189.175781 223.09375 187.910156 C 221.554688 185.605469 220.992188 184.882812 220.519531 184.605469 C 220.121094 184.371094 219.351562 184.230469 219.164062 184.355469 C 219.007812 184.460938 218.695312 184.292969 218.09375 183.78125 C 217.320312 183.128906 216.542969 182.714844 216.054688 182.699219 C 215.9375 182.695312 215.65625 182.582031 215.429688 182.441406 C 215.203125 182.300781 214.78125 182.140625 214.503906 182.085938 C 214.125 182.011719 213.96875 181.933594 213.863281 181.777344 C 213.601562 181.386719 213.085938 180.945312 212.714844 180.792969 C 212.363281 180.652344 212.308594 180.59375 211.671875 179.707031 C 210.941406 178.679688 210.730469 178.503906 209.796875 178.105469 C 209.371094 177.925781 209.277344 177.84375 208.558594 176.992188 C 207.082031 175.253906 206.867188 175.011719 206.484375 174.722656 C 206.007812 174.371094 205.261719 174.09375 204.019531 173.820312 C 203.558594 173.71875 203.199219 173.667969 202.871094 173.671875 Z M 228.570312 187.902344 C 228.515625 187.902344 228.457031 187.90625 228.40625 187.910156 C 228.34375 187.910156 228.285156 187.910156 228.226562 187.921875 C 227.835938 187.984375 227.164062 188.523438 226.910156 188.972656 C 226.425781 189.832031 226.808594 191.429688 227.816406 192.75 C 228.789062 194.027344 230.113281 194.527344 232.171875 194.398438 C 232.6875 194.363281 233.210938 194.347656 233.332031 194.367188 C 233.742188 194.425781 235 194.378906 235.625 194.28125 C 235.972656 194.226562 236.425781 194.207031 236.625 194.230469 C 236.824219 194.257812 237.15625 194.261719 237.363281 194.25 C 237.570312 194.238281 237.835938 194.246094 237.953125 194.261719 C 238.070312 194.277344 238.5 194.257812 238.902344 194.21875 C 239.949219 194.113281 240.148438 194.128906 240.433594 194.378906 C 240.757812 194.664062 240.761719 194.664062 241.234375 194.21875 C 241.550781 193.921875 241.691406 193.835938 241.863281 193.820312 C 242.058594 193.800781 242.09375 193.753906 242.203125 193.402344 C 242.34375 192.933594 242.210938 192.507812 241.671875 191.703125 C 240.9375 190.609375 240.394531 190.417969 238.730469 190.671875 C 238.65625 190.679688 238.328125 190.566406 237.996094 190.410156 C 237.207031 190.039062 235.511719 189.671875 233.128906 189.355469 C 232.203125 189.230469 230.039062 188.535156 229.613281 188.230469 C 229.34375 188.035156 228.953125 187.914062 228.570312 187.902344 Z M 224.71875 202.128906 C 224.515625 202.128906 224.335938 202.15625 224.273438 202.195312 C 223.929688 202.425781 224.007812 204.476562 224.367188 204.707031 C 224.585938 204.84375 225.746094 205.746094 226.289062 206.207031 C 226.582031 206.453125 226.671875 206.566406 226.699219 206.746094 C 226.746094 207.027344 227.253906 207.523438 228.183594 208.171875 C 229.621094 209.179688 231.113281 210.421875 231.285156 210.761719 C 231.4375 211.054688 231.953125 211.617188 232.671875 212.261719 C 232.8125 212.386719 233.269531 212.671875 233.6875 212.902344 C 234.445312 213.320312 234.445312 213.320312 235.035156 214.292969 C 235.980469 215.847656 237.574219 217.378906 239.535156 218.609375 C 240.273438 219.074219 241.40625 219.277344 242.644531 219.164062 C 243.300781 219.101562 244.195312 218.449219 244.4375 217.851562 C 244.839844 216.855469 244.425781 215.800781 243.144531 214.601562 C 242.828125 214.304688 242.308594 213.742188 242 213.351562 C 241.363281 212.554688 241.09375 212.28125 240.40625 211.769531 C 239.960938 211.441406 239.667969 211.265625 238.605469 210.675781 C 238.382812 210.554688 237.546875 209.996094 236.746094 209.441406 C 235.949219 208.886719 235.132812 208.316406 234.929688 208.179688 C 234.730469 208.042969 234.148438 207.585938 233.644531 207.164062 C 232.632812 206.320312 230.851562 205.25 229.828125 204.871094 C 229.050781 204.582031 228.964844 204.53125 228.011719 203.808594 C 226.085938 202.34375 225.804688 202.199219 224.921875 202.136719 C 224.851562 202.128906 224.785156 202.128906 224.71875 202.128906 Z M 219.386719 210.585938 C 219.144531 210.589844 218.902344 210.726562 218.394531 211.003906 C 217.90625 211.265625 217.5 211.480469 217.492188 211.480469 C 217.414062 211.472656 217.429688 211.871094 217.507812 211.992188 C 217.582031 212.101562 217.542969 212.335938 217.378906 212.816406 C 217.035156 213.835938 217.101562 214.027344 218.414062 215.996094 C 219.441406 217.539062 219.4375 217.542969 219.832031 217.734375 C 220.113281 217.875 220.246094 217.988281 220.296875 218.136719 C 220.34375 218.257812 220.496094 218.421875 220.667969 218.542969 C 220.890625 218.695312 221.121094 218.988281 221.660156 219.789062 C 222.320312 220.777344 222.371094 220.863281 222.417969 221.273438 C 222.460938 221.699219 222.476562 221.730469 223.546875 223.328125 C 224.148438 224.214844 225.035156 225.472656 225.523438 226.125 C 226.015625 226.773438 227.0625 228.171875 227.847656 229.222656 C 229.804688 231.859375 230.582031 232.585938 231.835938 232.945312 C 233.464844 233.410156 235.058594 232.046875 235.019531 230.21875 C 235 229.398438 234.878906 229.089844 234.167969 228.121094 C 233.832031 227.667969 233.230469 226.839844 232.832031 226.289062 C 232.433594 225.742188 231.90625 225.097656 231.664062 224.859375 C 231.417969 224.617188 231.058594 224.171875 230.855469 223.875 C 230.542969 223.410156 229.308594 222.125 229.070312 222.015625 C 229.035156 222 228.609375 221.457031 228.128906 220.8125 C 227.386719 219.816406 227.1875 219.589844 226.84375 219.359375 C 226.355469 219.035156 225.226562 217.429688 224.636719 216.222656 C 224.351562 215.636719 224.203125 215.421875 223.605469 214.734375 C 223.21875 214.292969 222.480469 213.328125 221.953125 212.589844 C 221 211.25 220.996094 211.25 220.398438 210.960938 C 219.875 210.707031 219.628906 210.578125 219.386719 210.585938 Z M 219.386719 210.585938 " fill-opacity="1" fill-rule="nonzero"/><g fill="#545454" fill-opacity="1"><g transform="translate(101.179685, 265.147511)"><g><path d="M 18.71875 -6.6875 C 18.71875 -5.4375 18.453125 -4.359375 17.921875 -3.453125 C 17.398438 -2.546875 16.710938 -1.800781 15.859375 -1.21875 C 15.015625 -0.632812 14.097656 -0.207031 13.109375 0.0625 C 12.117188 0.332031 11.148438 0.46875 10.203125 0.46875 C 9.242188 0.46875 8.273438 0.332031 7.296875 0.0625 C 6.316406 -0.207031 5.40625 -0.632812 4.5625 -1.21875 C 3.71875 -1.800781 3.035156 -2.546875 2.515625 -3.453125 C 1.992188 -4.359375 1.734375 -5.4375 1.734375 -6.6875 L 1.734375 -14.15625 C 1.734375 -15.40625 1.992188 -16.484375 2.515625 -17.390625 C 3.035156 -18.296875 3.71875 -19.035156 4.5625 -19.609375 C 5.40625 -20.191406 6.316406 -20.617188 7.296875 -20.890625 C 8.273438 -21.171875 9.242188 -21.3125 10.203125 -21.3125 C 11.148438 -21.3125 12.117188 -21.171875 13.109375 -20.890625 C 14.097656 -20.617188 15.015625 -20.191406 15.859375 -19.609375 C 16.710938 -19.035156 17.398438 -18.296875 17.921875 -17.390625 C 18.453125 -16.484375 18.71875 -15.40625 18.71875 -14.15625 Z M 13.75 -13.71875 C 13.75 -14.726562 13.421875 -15.507812 12.765625 -16.0625 C 12.109375 -16.625 11.253906 -16.90625 10.203125 -16.90625 C 9.160156 -16.90625 8.3125 -16.625 7.65625 -16.0625 C 7.007812 -15.507812 6.6875 -14.726562 6.6875 -13.71875 L 6.6875 -7.125 C 6.6875 -6.113281 7.007812 -5.328125 7.65625 -4.765625 C 8.3125 -4.203125 9.160156 -3.921875 10.203125 -3.921875 C 11.253906 -3.921875 12.109375 -4.203125 12.765625 -4.765625 C 13.421875 -5.328125 13.75 -6.113281 13.75 -7.125 Z M 13.75 -13.71875 "/></g></g></g><g fill="#545454" fill-opacity="1"><g transform="translate(121.602971, 265.147511)"><g><path d="M 18.34375 -20.84375 C 18.632812 -20.84375 18.859375 -20.773438 19.015625 -20.640625 C 19.171875 -20.515625 19.25 -20.273438 19.25 -19.921875 L 19.25 -0.921875 C 19.25 -0.640625 19.1875 -0.414062 19.0625 -0.25 C 18.9375 -0.0820312 18.695312 0 18.34375 0 L 15.453125 0 C 15.054688 0 14.769531 -0.0976562 14.59375 -0.296875 C 14.425781 -0.503906 14.238281 -0.765625 14.03125 -1.078125 L 7.3125 -11.9375 L 7.3125 -0.921875 C 7.3125 -0.554688 7.234375 -0.3125 7.078125 -0.1875 C 6.921875 -0.0625 6.691406 0 6.390625 0 L 3.265625 0 C 2.984375 0 2.757812 -0.0625 2.59375 -0.1875 C 2.425781 -0.3125 2.34375 -0.554688 2.34375 -0.921875 L 2.34375 -19.921875 C 2.34375 -20.210938 2.40625 -20.4375 2.53125 -20.59375 C 2.65625 -20.757812 2.898438 -20.84375 3.265625 -20.84375 L 6.234375 -20.84375 C 6.640625 -20.84375 6.925781 -20.738281 7.09375 -20.53125 C 7.257812 -20.332031 7.453125 -20.078125 7.671875 -19.765625 L 14.375 -8.9375 L 14.375 -19.921875 C 14.375 -20.273438 14.457031 -20.515625 14.625 -20.640625 C 14.800781 -20.773438 15.023438 -20.84375 15.296875 -20.84375 Z M 18.34375 -20.84375 "/></g></g></g><g fill="#545454" fill-opacity="1"><g transform="translate(143.197822, 265.147511)"><g><path d="M 17.828125 -11.625 C 18.191406 -11.625 18.4375 -11.546875 18.5625 -11.390625 C 18.6875 -11.234375 18.75 -11.003906 18.75 -10.703125 L 18.75 -6.109375 C 18.6875 -4.972656 18.378906 -3.988281 17.828125 -3.15625 C 17.273438 -2.320312 16.578125 -1.640625 15.734375 -1.109375 C 14.890625 -0.578125 13.988281 -0.179688 13.03125 0.078125 C 12.070312 0.335938 11.140625 0.46875 10.234375 0.46875 C 9.304688 0.46875 8.34375 0.34375 7.34375 0.09375 C 6.351562 -0.15625 5.429688 -0.550781 4.578125 -1.09375 C 3.722656 -1.632812 3.03125 -2.34375 2.5 -3.21875 C 1.96875 -4.09375 1.703125 -5.148438 1.703125 -6.390625 L 1.703125 -14.1875 C 1.703125 -15.4375 1.96875 -16.515625 2.5 -17.421875 C 3.03125 -18.328125 3.722656 -19.0625 4.578125 -19.625 C 5.429688 -20.195312 6.351562 -20.617188 7.34375 -20.890625 C 8.34375 -21.171875 9.304688 -21.3125 10.234375 -21.3125 C 11.222656 -21.3125 12.21875 -21.164062 13.21875 -20.875 C 14.226562 -20.59375 15.148438 -20.175781 15.984375 -19.625 C 16.816406 -19.082031 17.484375 -18.40625 17.984375 -17.59375 C 18.492188 -16.78125 18.75 -15.847656 18.75 -14.796875 C 18.75 -14.410156 18.6875 -14.164062 18.5625 -14.0625 C 18.4375 -13.957031 18.191406 -13.90625 17.828125 -13.90625 L 14.765625 -13.90625 C 14.316406 -13.90625 14.070312 -14.03125 14.03125 -14.28125 C 13.988281 -14.53125 13.925781 -14.765625 13.84375 -14.984375 C 13.675781 -15.460938 13.296875 -15.898438 12.703125 -16.296875 C 12.109375 -16.703125 11.285156 -16.90625 10.234375 -16.90625 C 9.191406 -16.90625 8.347656 -16.585938 7.703125 -15.953125 C 7.066406 -15.328125 6.75 -14.503906 6.75 -13.484375 L 6.75 -7.125 C 6.75 -6.113281 7.066406 -5.328125 7.703125 -4.765625 C 8.347656 -4.203125 9.191406 -3.921875 10.234375 -3.921875 C 11.265625 -3.921875 12.109375 -4.179688 12.765625 -4.703125 C 13.421875 -5.222656 13.75 -6.09375 13.75 -7.3125 L 10.890625 -7.3125 C 10.535156 -7.3125 10.296875 -7.394531 10.171875 -7.5625 C 10.046875 -7.738281 9.984375 -7.960938 9.984375 -8.234375 L 9.984375 -10.703125 C 9.984375 -11.003906 10.046875 -11.234375 10.171875 -11.390625 C 10.296875 -11.546875 10.535156 -11.625 10.890625 -11.625 Z M 17.828125 -11.625 "/></g></g></g><g fill="#545454" fill-opacity="1"><g transform="translate(163.652773, 265.147511)"><g/></g></g><g fill="#545454" fill-opacity="1"><g transform="translate(172.233724, 265.147511)"><g><path d="M 16.4375 -4.4375 C 16.789062 -4.4375 17.03125 -4.351562 17.15625 -4.1875 C 17.289062 -4.03125 17.359375 -3.804688 17.359375 -3.515625 L 17.359375 -0.921875 C 17.359375 -0.640625 17.289062 -0.414062 17.15625 -0.25 C 17.03125 -0.0820312 16.789062 0 16.4375 0 L 3.265625 0 C 2.898438 0 2.65625 -0.0820312 2.53125 -0.25 C 2.40625 -0.414062 2.34375 -0.640625 2.34375 -0.921875 L 2.34375 -19.921875 C 2.34375 -20.273438 2.425781 -20.515625 2.59375 -20.640625 C 2.757812 -20.773438 2.984375 -20.84375 3.265625 -20.84375 L 6.390625 -20.84375 C 6.691406 -20.84375 6.921875 -20.773438 7.078125 -20.640625 C 7.234375 -20.515625 7.3125 -20.273438 7.3125 -19.921875 L 7.3125 -4.4375 Z M 16.4375 -4.4375 "/></g></g></g><g fill="#545454" fill-opacity="1"><g transform="translate(190.662179, 265.147511)"><g><path d="M 17.453125 -4.4375 C 17.804688 -4.4375 18.046875 -4.351562 18.171875 -4.1875 C 18.304688 -4.03125 18.375 -3.804688 18.375 -3.515625 L 18.375 -0.921875 C 18.375 -0.640625 18.304688 -0.414062 18.171875 -0.25 C 18.046875 -0.0820312 17.804688 0 17.453125 0 L 3.265625 0 C 2.898438 0 2.65625 -0.0820312 2.53125 -0.25 C 2.40625 -0.414062 2.34375 -0.640625 2.34375 -0.921875 L 2.34375 -19.921875 C 2.34375 -20.210938 2.40625 -20.4375 2.53125 -20.59375 C 2.65625 -20.757812 2.898438 -20.84375 3.265625 -20.84375 L 16.90625 -20.84375 C 17.269531 -20.84375 17.515625 -20.757812 17.640625 -20.59375 C 17.765625 -20.4375 17.828125 -20.210938 17.828125 -19.921875 L 17.828125 -17.296875 C 17.828125 -17.015625 17.765625 -16.789062 17.640625 -16.625 C 17.515625 -16.457031 17.269531 -16.375 16.90625 -16.375 L 7.34375 -16.375 L 7.34375 -12.921875 L 15.828125 -12.921875 C 16.191406 -12.921875 16.4375 -12.84375 16.5625 -12.6875 C 16.6875 -12.53125 16.75 -12.300781 16.75 -12 L 16.75 -9.53125 C 16.75 -9.257812 16.6875 -9.035156 16.5625 -8.859375 C 16.4375 -8.691406 16.191406 -8.609375 15.828125 -8.609375 L 7.34375 -8.609375 L 7.34375 -4.4375 Z M 17.453125 -4.4375 "/></g></g></g><g fill="#545454" fill-opacity="1"><g transform="translate(210.515514, 265.147511)"><g><path d="M 21.03125 -20.875 C 21.382812 -20.875 21.625 -20.789062 21.75 -20.625 C 21.882812 -20.46875 21.953125 -20.242188 21.953125 -19.953125 L 21.953125 -0.921875 C 21.953125 -0.554688 21.867188 -0.3125 21.703125 -0.1875 C 21.546875 -0.0625 21.320312 0 21.03125 0 L 17.984375 0 C 17.710938 0 17.492188 -0.0625 17.328125 -0.1875 C 17.160156 -0.3125 17.078125 -0.554688 17.078125 -0.921875 L 17.078125 -11.65625 L 13.90625 -6.109375 C 13.820312 -5.984375 13.703125 -5.84375 13.546875 -5.6875 C 13.398438 -5.53125 13.210938 -5.453125 12.984375 -5.453125 L 11.40625 -5.453125 C 11.164062 -5.453125 10.976562 -5.53125 10.84375 -5.6875 C 10.707031 -5.84375 10.597656 -5.984375 10.515625 -6.109375 L 7.3125 -11.65625 L 7.3125 -0.921875 C 7.3125 -0.554688 7.234375 -0.3125 7.078125 -0.1875 C 6.921875 -0.0625 6.691406 0 6.390625 0 L 3.265625 0 C 2.984375 0 2.757812 -0.0625 2.59375 -0.1875 C 2.425781 -0.3125 2.34375 -0.554688 2.34375 -0.921875 L 2.34375 -19.953125 C 2.34375 -20.242188 2.40625 -20.46875 2.53125 -20.625 C 2.65625 -20.789062 2.898438 -20.875 3.265625 -20.875 L 6.390625 -20.875 C 6.941406 -20.875 7.289062 -20.738281 7.4375 -20.46875 C 7.59375 -20.207031 7.734375 -19.984375 7.859375 -19.796875 L 12.1875 -12 L 16.5625 -19.796875 C 16.664062 -19.984375 16.796875 -20.207031 16.953125 -20.46875 C 17.117188 -20.738281 17.460938 -20.875 17.984375 -20.875 Z M 21.03125 -20.875 "/></g></g></g><g fill="#545454" fill-opacity="1"><g transform="translate(234.801809, 265.147511)"><g><path d="M 17.453125 -4.4375 C 17.804688 -4.4375 18.046875 -4.351562 18.171875 -4.1875 C 18.304688 -4.03125 18.375 -3.804688 18.375 -3.515625 L 18.375 -0.921875 C 18.375 -0.640625 18.304688 -0.414062 18.171875 -0.25 C 18.046875 -0.0820312 17.804688 0 17.453125 0 L 3.265625 0 C 2.898438 0 2.65625 -0.0820312 2.53125 -0.25 C 2.40625 -0.414062 2.34375 -0.640625 2.34375 -0.921875 L 2.34375 -19.921875 C 2.34375 -20.210938 2.40625 -20.4375 2.53125 -20.59375 C 2.65625 -20.757812 2.898438 -20.84375 3.265625 -20.84375 L 16.90625 -20.84375 C 17.269531 -20.84375 17.515625 -20.757812 17.640625 -20.59375 C 17.765625 -20.4375 17.828125 -20.210938 17.828125 -19.921875 L 17.828125 -17.296875 C 17.828125 -17.015625 17.765625 -16.789062 17.640625 -16.625 C 17.515625 -16.457031 17.269531 -16.375 16.90625 -16.375 L 7.34375 -16.375 L 7.34375 -12.921875 L 15.828125 -12.921875 C 16.191406 -12.921875 16.4375 -12.84375 16.5625 -12.6875 C 16.6875 -12.53125 16.75 -12.300781 16.75 -12 L 16.75 -9.53125 C 16.75 -9.257812 16.6875 -9.035156 16.5625 -8.859375 C 16.4375 -8.691406 16.191406 -8.609375 15.828125 -8.609375 L 7.34375 -8.609375 L 7.34375 -4.4375 Z M 17.453125 -4.4375 "/></g></g></g><g fill="#545454" fill-opacity="1"><g transform="translate(254.655144, 265.147511)"><g><path d="M 12.15625 -12.09375 C 12.726562 -11.925781 13.34375 -11.71875 14 -11.46875 C 14.65625 -11.226562 15.265625 -10.898438 15.828125 -10.484375 C 16.398438 -10.078125 16.867188 -9.523438 17.234375 -8.828125 C 17.609375 -8.140625 17.796875 -7.253906 17.796875 -6.171875 C 17.796875 -4.671875 17.429688 -3.429688 16.703125 -2.453125 C 15.972656 -1.472656 14.972656 -0.738281 13.703125 -0.25 C 12.441406 0.226562 11 0.46875 9.375 0.46875 C 8.382812 0.46875 7.382812 0.328125 6.375 0.046875 C 5.375 -0.234375 4.457031 -0.65625 3.625 -1.21875 C 2.789062 -1.78125 2.117188 -2.484375 1.609375 -3.328125 C 1.109375 -4.171875 0.859375 -5.140625 0.859375 -6.234375 C 0.859375 -6.597656 0.921875 -6.835938 1.046875 -6.953125 C 1.171875 -7.066406 1.414062 -7.125 1.78125 -7.125 L 4.84375 -7.125 C 5.207031 -7.125 5.484375 -7.078125 5.671875 -6.984375 C 5.859375 -6.890625 5.960938 -6.640625 5.984375 -6.234375 C 6.003906 -6.023438 6.054688 -5.816406 6.140625 -5.609375 C 6.222656 -5.398438 6.375 -5.175781 6.59375 -4.9375 C 6.90625 -4.5625 7.351562 -4.289062 7.9375 -4.125 C 8.519531 -3.96875 9.101562 -3.890625 9.6875 -3.890625 C 10.550781 -3.890625 11.285156 -4.023438 11.890625 -4.296875 C 12.492188 -4.578125 12.796875 -5.160156 12.796875 -6.046875 C 12.796875 -6.640625 12.519531 -7.070312 11.96875 -7.34375 C 11.425781 -7.625 10.734375 -7.851562 9.890625 -8.03125 C 9.054688 -8.207031 8.1875 -8.429688 7.28125 -8.703125 C 6.226562 -9.046875 5.226562 -9.445312 4.28125 -9.90625 C 3.34375 -10.375 2.582031 -11.007812 2 -11.8125 C 1.425781 -12.613281 1.140625 -13.679688 1.140625 -15.015625 C 1.140625 -16.390625 1.503906 -17.535156 2.234375 -18.453125 C 2.960938 -19.367188 3.914062 -20.0625 5.09375 -20.53125 C 6.28125 -21.007812 7.53125 -21.269531 8.84375 -21.3125 C 9.851562 -21.3125 10.851562 -21.195312 11.84375 -20.96875 C 12.832031 -20.738281 13.734375 -20.375 14.546875 -19.875 C 15.359375 -19.375 16.015625 -18.75 16.515625 -18 C 17.015625 -17.25 17.265625 -16.347656 17.265625 -15.296875 C 17.265625 -14.921875 17.195312 -14.675781 17.0625 -14.5625 C 16.9375 -14.457031 16.695312 -14.40625 16.34375 -14.40625 L 13.234375 -14.40625 C 12.941406 -14.40625 12.75 -14.492188 12.65625 -14.671875 C 12.5625 -14.859375 12.472656 -15.054688 12.390625 -15.265625 C 12.316406 -15.429688 12.234375 -15.582031 12.140625 -15.71875 C 12.046875 -15.863281 11.90625 -16.03125 11.71875 -16.21875 C 11.425781 -16.507812 11.023438 -16.722656 10.515625 -16.859375 C 10.003906 -17.003906 9.507812 -17.078125 9.03125 -17.078125 C 8.6875 -17.078125 8.289062 -17.019531 7.84375 -16.90625 C 7.40625 -16.800781 7.023438 -16.617188 6.703125 -16.359375 C 6.390625 -16.097656 6.234375 -15.722656 6.234375 -15.234375 C 6.234375 -14.742188 6.476562 -14.328125 6.96875 -13.984375 C 7.457031 -13.648438 8.039062 -13.363281 8.71875 -13.125 C 9.40625 -12.882812 10.070312 -12.679688 10.71875 -12.515625 C 11.363281 -12.359375 11.84375 -12.21875 12.15625 -12.09375 Z M 12.15625 -12.09375 "/></g></g></g><g fill="#545454" fill-opacity="1"><g transform="translate(106.391255, 288.328517)"><g><path d="M 3.4375 0 L 2.546875 0 L 2.546875 -6.921875 L 0.09375 -6.921875 L 0.09375 -7.71875 L 5.875 -7.71875 L 5.875 -6.921875 L 3.4375 -6.921875 Z M 3.4375 0 "/></g></g></g><g fill="#545454" fill-opacity="1"><g transform="translate(114.260532, 288.328517)"><g><path d="M 1.953125 -3.203125 L 1.953125 0 L 1.0625 0 L 1.0625 -7.71875 L 3.171875 -7.71875 C 4.117188 -7.71875 4.816406 -7.535156 5.265625 -7.171875 C 5.722656 -6.804688 5.953125 -6.257812 5.953125 -5.53125 C 5.953125 -4.507812 5.4375 -3.820312 4.40625 -3.46875 L 6.5 0 L 5.4375 0 L 3.5625 -3.203125 Z M 1.953125 -3.984375 L 3.1875 -3.984375 C 3.820312 -3.984375 4.285156 -4.109375 4.578125 -4.359375 C 4.878906 -4.609375 5.03125 -4.984375 5.03125 -5.484375 C 5.03125 -5.992188 4.878906 -6.363281 4.578125 -6.59375 C 4.273438 -6.820312 3.789062 -6.9375 3.125 -6.9375 L 1.953125 -6.9375 Z M 1.953125 -3.984375 "/></g></g></g><g fill="#545454" fill-opacity="1"><g transform="translate(122.831481, 288.328517)"><g><path d="M 5.90625 0 L 4.953125 -2.453125 L 1.859375 -2.453125 L 0.90625 0 L 0 0 L 3.046875 -7.75 L 3.8125 -7.75 L 6.84375 0 Z M 4.671875 -3.265625 L 3.78125 -5.65625 C 3.65625 -5.957031 3.535156 -6.328125 3.421875 -6.765625 C 3.335938 -6.429688 3.222656 -6.0625 3.078125 -5.65625 L 2.171875 -3.265625 Z M 4.671875 -3.265625 "/></g></g></g><g fill="#545454" fill-opacity="1"><g transform="translate(131.560702, 288.328517)"><g><path d="M 7.09375 0 L 6.0625 0 L 1.84375 -6.484375 L 1.8125 -6.484375 C 1.863281 -5.722656 1.890625 -5.023438 1.890625 -4.390625 L 1.890625 0 L 1.0625 0 L 1.0625 -7.71875 L 2.078125 -7.71875 L 6.28125 -1.265625 L 6.328125 -1.265625 C 6.316406 -1.359375 6.296875 -1.660156 6.265625 -2.171875 C 6.242188 -2.691406 6.238281 -3.066406 6.25 -3.296875 L 6.25 -7.71875 L 7.09375 -7.71875 Z M 7.09375 0 "/></g></g></g><g fill="#545454" fill-opacity="1"><g transform="translate(141.598303, 288.328517)"><g><path d="M 5.421875 -2.046875 C 5.421875 -1.367188 5.171875 -0.835938 4.671875 -0.453125 C 4.179688 -0.078125 3.515625 0.109375 2.671875 0.109375 C 1.753906 0.109375 1.050781 -0.0078125 0.5625 -0.25 L 0.5625 -1.109375 C 0.875 -0.972656 1.21875 -0.867188 1.59375 -0.796875 C 1.96875 -0.722656 2.335938 -0.6875 2.703125 -0.6875 C 3.296875 -0.6875 3.742188 -0.796875 4.046875 -1.015625 C 4.359375 -1.242188 4.515625 -1.5625 4.515625 -1.96875 C 4.515625 -2.238281 4.457031 -2.457031 4.34375 -2.625 C 4.238281 -2.789062 4.0625 -2.945312 3.8125 -3.09375 C 3.5625 -3.238281 3.175781 -3.40625 2.65625 -3.59375 C 1.9375 -3.84375 1.421875 -4.144531 1.109375 -4.5 C 0.804688 -4.851562 0.65625 -5.3125 0.65625 -5.875 C 0.65625 -6.476562 0.878906 -6.953125 1.328125 -7.296875 C 1.773438 -7.648438 2.367188 -7.828125 3.109375 -7.828125 C 3.867188 -7.828125 4.570312 -7.6875 5.21875 -7.40625 L 4.9375 -6.625 C 4.300781 -6.894531 3.679688 -7.03125 3.078125 -7.03125 C 2.609375 -7.03125 2.238281 -6.925781 1.96875 -6.71875 C 1.695312 -6.519531 1.5625 -6.238281 1.5625 -5.875 C 1.5625 -5.601562 1.609375 -5.378906 1.703125 -5.203125 C 1.804688 -5.035156 1.972656 -4.878906 2.203125 -4.734375 C 2.441406 -4.597656 2.804688 -4.441406 3.296875 -4.265625 C 4.097656 -3.984375 4.648438 -3.675781 4.953125 -3.34375 C 5.265625 -3.007812 5.421875 -2.578125 5.421875 -2.046875 Z M 5.421875 -2.046875 "/></g></g></g><g fill="#545454" fill-opacity="1"><g transform="translate(149.420099, 288.328517)"><g><path d="M 1.953125 0 L 1.0625 0 L 1.0625 -7.71875 L 5.359375 -7.71875 L 5.359375 -6.921875 L 1.953125 -6.921875 L 1.953125 -4.09375 L 5.15625 -4.09375 L 5.15625 -3.296875 L 1.953125 -3.296875 Z M 1.953125 0 "/></g></g></g><g fill="#545454" fill-opacity="1"><g transform="translate(156.888421, 288.328517)"><g><path d="M 7.765625 -3.875 C 7.765625 -2.632812 7.453125 -1.660156 6.828125 -0.953125 C 6.203125 -0.242188 5.332031 0.109375 4.21875 0.109375 C 3.082031 0.109375 2.203125 -0.238281 1.578125 -0.9375 C 0.960938 -1.632812 0.65625 -2.613281 0.65625 -3.875 C 0.65625 -5.132812 0.960938 -6.109375 1.578125 -6.796875 C 2.203125 -7.492188 3.085938 -7.84375 4.234375 -7.84375 C 5.335938 -7.84375 6.203125 -7.488281 6.828125 -6.78125 C 7.453125 -6.082031 7.765625 -5.113281 7.765625 -3.875 Z M 1.609375 -3.875 C 1.609375 -2.820312 1.832031 -2.023438 2.28125 -1.484375 C 2.726562 -0.953125 3.375 -0.6875 4.21875 -0.6875 C 5.070312 -0.6875 5.71875 -0.953125 6.15625 -1.484375 C 6.59375 -2.023438 6.8125 -2.820312 6.8125 -3.875 C 6.8125 -4.90625 6.59375 -5.6875 6.15625 -6.21875 C 5.71875 -6.757812 5.078125 -7.03125 4.234375 -7.03125 C 3.378906 -7.03125 2.726562 -6.757812 2.28125 -6.21875 C 1.832031 -5.6875 1.609375 -4.90625 1.609375 -3.875 Z M 1.609375 -3.875 "/></g></g></g><g fill="#545454" fill-opacity="1"><g transform="translate(167.195084, 288.328517)"><g><path d="M 1.953125 -3.203125 L 1.953125 0 L 1.0625 0 L 1.0625 -7.71875 L 3.171875 -7.71875 C 4.117188 -7.71875 4.816406 -7.535156 5.265625 -7.171875 C 5.722656 -6.804688 5.953125 -6.257812 5.953125 -5.53125 C 5.953125 -4.507812 5.4375 -3.820312 4.40625 -3.46875 L 6.5 0 L 5.4375 0 L 3.5625 -3.203125 Z M 1.953125 -3.984375 L 3.1875 -3.984375 C 3.820312 -3.984375 4.285156 -4.109375 4.578125 -4.359375 C 4.878906 -4.609375 5.03125 -4.984375 5.03125 -5.484375 C 5.03125 -5.992188 4.878906 -6.363281 4.578125 -6.59375 C 4.273438 -6.820312 3.789062 -6.9375 3.125 -6.9375 L 1.953125 -6.9375 Z M 1.953125 -3.984375 "/></g></g></g><g fill="#545454" fill-opacity="1"><g transform="translate(175.766033, 288.328517)"><g><path d="M 4.484375 0 L 1.859375 -6.84375 L 1.8125 -6.84375 C 1.863281 -6.300781 1.890625 -5.65625 1.890625 -4.90625 L 1.890625 0 L 1.0625 0 L 1.0625 -7.71875 L 2.40625 -7.71875 L 4.859375 -1.359375 L 4.90625 -1.359375 L 7.359375 -7.71875 L 8.703125 -7.71875 L 8.703125 0 L 7.8125 0 L 7.8125 -4.96875 C 7.8125 -5.539062 7.832031 -6.160156 7.875 -6.828125 L 7.84375 -6.828125 L 5.203125 0 Z M 4.484375 0 "/></g></g></g><g fill="#545454" fill-opacity="1"><g transform="translate(187.41273, 288.328517)"><g><path d="M 5.90625 0 L 4.953125 -2.453125 L 1.859375 -2.453125 L 0.90625 0 L 0 0 L 3.046875 -7.75 L 3.8125 -7.75 L 6.84375 0 Z M 4.671875 -3.265625 L 3.78125 -5.65625 C 3.65625 -5.957031 3.535156 -6.328125 3.421875 -6.765625 C 3.335938 -6.429688 3.222656 -6.0625 3.078125 -5.65625 L 2.171875 -3.265625 Z M 4.671875 -3.265625 "/></g></g></g><g fill="#545454" fill-opacity="1"><g transform="translate(196.141951, 288.328517)"><g><path d="M 7.09375 0 L 6.0625 0 L 1.84375 -6.484375 L 1.8125 -6.484375 C 1.863281 -5.722656 1.890625 -5.023438 1.890625 -4.390625 L 1.890625 0 L 1.0625 0 L 1.0625 -7.71875 L 2.078125 -7.71875 L 6.28125 -1.265625 L 6.328125 -1.265625 C 6.316406 -1.359375 6.296875 -1.660156 6.265625 -2.171875 C 6.242188 -2.691406 6.238281 -3.066406 6.25 -3.296875 L 6.25 -7.71875 L 7.09375 -7.71875 Z M 7.09375 0 "/></g></g></g><g fill="#545454" fill-opacity="1"><g transform="translate(206.179552, 288.328517)"><g><path d="M 7.21875 -3.9375 C 7.21875 -2.65625 6.867188 -1.675781 6.171875 -1 C 5.484375 -0.332031 4.492188 0 3.203125 0 L 1.0625 0 L 1.0625 -7.71875 L 3.421875 -7.71875 C 4.628906 -7.71875 5.5625 -7.382812 6.21875 -6.71875 C 6.882812 -6.050781 7.21875 -5.125 7.21875 -3.9375 Z M 6.265625 -3.90625 C 6.265625 -4.90625 6.007812 -5.660156 5.5 -6.171875 C 5 -6.679688 4.253906 -6.9375 3.265625 -6.9375 L 1.953125 -6.9375 L 1.953125 -0.78125 L 3.046875 -0.78125 C 4.117188 -0.78125 4.921875 -1.039062 5.453125 -1.5625 C 5.992188 -2.09375 6.265625 -2.875 6.265625 -3.90625 Z M 6.265625 -3.90625 "/></g></g></g><g fill="#545454" fill-opacity="1"><g transform="translate(215.94809, 288.328517)"><g><path d="M 7.765625 -3.875 C 7.765625 -2.632812 7.453125 -1.660156 6.828125 -0.953125 C 6.203125 -0.242188 5.332031 0.109375 4.21875 0.109375 C 3.082031 0.109375 2.203125 -0.238281 1.578125 -0.9375 C 0.960938 -1.632812 0.65625 -2.613281 0.65625 -3.875 C 0.65625 -5.132812 0.960938 -6.109375 1.578125 -6.796875 C 2.203125 -7.492188 3.085938 -7.84375 4.234375 -7.84375 C 5.335938 -7.84375 6.203125 -7.488281 6.828125 -6.78125 C 7.453125 -6.082031 7.765625 -5.113281 7.765625 -3.875 Z M 1.609375 -3.875 C 1.609375 -2.820312 1.832031 -2.023438 2.28125 -1.484375 C 2.726562 -0.953125 3.375 -0.6875 4.21875 -0.6875 C 5.070312 -0.6875 5.71875 -0.953125 6.15625 -1.484375 C 6.59375 -2.023438 6.8125 -2.820312 6.8125 -3.875 C 6.8125 -4.90625 6.59375 -5.6875 6.15625 -6.21875 C 5.71875 -6.757812 5.078125 -7.03125 4.234375 -7.03125 C 3.378906 -7.03125 2.726562 -6.757812 2.28125 -6.21875 C 1.832031 -5.6875 1.609375 -4.90625 1.609375 -3.875 Z M 1.609375 -3.875 "/></g></g></g><g fill="#545454" fill-opacity="1"><g transform="translate(226.254753, 288.328517)"><g/></g></g><g fill="#545454" fill-opacity="1"><g transform="translate(230.953319, 288.328517)"><g><path d="M 5.46875 -7.71875 L 6.4375 -7.71875 L 3.65625 0 L 2.765625 0 L 0 -7.71875 L 0.953125 -7.71875 L 2.71875 -2.71875 C 2.925781 -2.144531 3.085938 -1.585938 3.203125 -1.046875 C 3.335938 -1.617188 3.503906 -2.1875 3.703125 -2.75 Z M 5.46875 -7.71875 "/></g></g></g><g fill="#545454" fill-opacity="1"><g transform="translate(239.276309, 288.328517)"><g><path d="M 1.0625 0 L 1.0625 -7.71875 L 1.953125 -7.71875 L 1.953125 0 Z M 1.0625 0 "/></g></g></g><g fill="#545454" fill-opacity="1"><g transform="translate(244.180629, 288.328517)"><g><path d="M 7.21875 -3.9375 C 7.21875 -2.65625 6.867188 -1.675781 6.171875 -1 C 5.484375 -0.332031 4.492188 0 3.203125 0 L 1.0625 0 L 1.0625 -7.71875 L 3.421875 -7.71875 C 4.628906 -7.71875 5.5625 -7.382812 6.21875 -6.71875 C 6.882812 -6.050781 7.21875 -5.125 7.21875 -3.9375 Z M 6.265625 -3.90625 C 6.265625 -4.90625 6.007812 -5.660156 5.5 -6.171875 C 5 -6.679688 4.253906 -6.9375 3.265625 -6.9375 L 1.953125 -6.9375 L 1.953125 -0.78125 L 3.046875 -0.78125 C 4.117188 -0.78125 4.921875 -1.039062 5.453125 -1.5625 C 5.992188 -2.09375 6.265625 -2.875 6.265625 -3.90625 Z M 6.265625 -3.90625 "/></g></g></g><g fill="#545454" fill-opacity="1"><g transform="translate(253.949167, 288.328517)"><g><path d="M 5.90625 0 L 4.953125 -2.453125 L 1.859375 -2.453125 L 0.90625 0 L 0 0 L 3.046875 -7.75 L 3.8125 -7.75 L 6.84375 0 Z M 4.671875 -3.265625 L 3.78125 -5.65625 C 3.65625 -5.957031 3.535156 -6.328125 3.421875 -6.765625 C 3.335938 -6.429688 3.222656 -6.0625 3.078125 -5.65625 L 2.171875 -3.265625 Z M 4.671875 -3.265625 "/></g></g></g><g fill="#545454" fill-opacity="1"><g transform="translate(262.678388, 288.328517)"><g><path d="M 5.421875 -2.046875 C 5.421875 -1.367188 5.171875 -0.835938 4.671875 -0.453125 C 4.179688 -0.078125 3.515625 0.109375 2.671875 0.109375 C 1.753906 0.109375 1.050781 -0.0078125 0.5625 -0.25 L 0.5625 -1.109375 C 0.875 -0.972656 1.21875 -0.867188 1.59375 -0.796875 C 1.96875 -0.722656 2.335938 -0.6875 2.703125 -0.6875 C 3.296875 -0.6875 3.742188 -0.796875 4.046875 -1.015625 C 4.359375 -1.242188 4.515625 -1.5625 4.515625 -1.96875 C 4.515625 -2.238281 4.457031 -2.457031 4.34375 -2.625 C 4.238281 -2.789062 4.0625 -2.945312 3.8125 -3.09375 C 3.5625 -3.238281 3.175781 -3.40625 2.65625 -3.59375 C 1.9375 -3.84375 1.421875 -4.144531 1.109375 -4.5 C 0.804688 -4.851562 0.65625 -5.3125 0.65625 -5.875 C 0.65625 -6.476562 0.878906 -6.953125 1.328125 -7.296875 C 1.773438 -7.648438 2.367188 -7.828125 3.109375 -7.828125 C 3.867188 -7.828125 4.570312 -7.6875 5.21875 -7.40625 L 4.9375 -6.625 C 4.300781 -6.894531 3.679688 -7.03125 3.078125 -7.03125 C 2.609375 -7.03125 2.238281 -6.925781 1.96875 -6.71875 C 1.695312 -6.519531 1.5625 -6.238281 1.5625 -5.875 C 1.5625 -5.601562 1.609375 -5.378906 1.703125 -5.203125 C 1.804688 -5.035156 1.972656 -4.878906 2.203125 -4.734375 C 2.441406 -4.597656 2.804688 -4.441406 3.296875 -4.265625 C 4.097656 -3.984375 4.648438 -3.675781 4.953125 -3.34375 C 5.265625 -3.007812 5.421875 -2.578125 5.421875 -2.046875 Z M 5.421875 -2.046875 "/></g></g></g></svg>